<svg width="160" height="135" viewBox="0 0 160 135" fill="none" xmlns="http://www.w3.org/2000/svg">
<rect x="0.5" y="0.5" width="159" height="134" rx="7.5" fill="white" stroke="#B4A9A9"/>
<path d="M34 92H131V95H34V92Z" fill="#EC6666"/>
<path d="M34 92H131V95H34V92Z" fill="#EC6666"/>
<path d="M34 92H131V95H34V92Z" fill="#EC6666"/>
<path d="M34 92H131V95H34V92Z" fill="#EC6666"/>
<path d="M34 92H131V95H34V92Z" fill="#EC6666"/>
<path d="M34 92H131V95H34V92Z" fill="#EC6666"/>
<path d="M34 92H131V95H34V92Z" fill="#FF6B2C"/>
<path d="M34.4617 41.1818V29.5455H41.7187V30.7955H35.9178V34.7273H41.343V35.9773H35.9178V39.9318H41.8127V41.1818H34.4617Z" fill="#161515" fill-opacity="0.71"/>
<path d="M48.1714 32.4545V33.5909H43.3099V32.4545H48.1714ZM44.766 41.1818V31.25C44.766 30.75 44.8873 30.3333 45.13 30C45.3727 29.6667 45.6878 29.4167 46.0753 29.25C46.4628 29.0833 46.8719 29 47.3025 29C47.643 29 47.9209 29.0265 48.1362 29.0795C48.3515 29.1326 48.512 29.1818 48.6177 29.2273L48.2184 30.3864C48.1479 30.3636 48.0501 30.3352 47.9248 30.3011C47.8035 30.267 47.643 30.25 47.4434 30.25C46.9854 30.25 46.6546 30.3617 46.4511 30.5852C46.2515 30.8087 46.1517 31.1364 46.1517 31.5682V41.1818H44.766Z" fill="#161515" fill-opacity="0.71"/>
<path d="M54.1294 32.4545V33.5909H49.2679V32.4545H54.1294ZM50.724 41.1818V31.25C50.724 30.75 50.8454 30.3333 51.0881 30C51.3307 29.6667 51.6458 29.4167 52.0333 29.25C52.4209 29.0833 52.8299 29 53.2605 29C53.601 29 53.8789 29.0265 54.0942 29.0795C54.3095 29.1326 54.47 29.1818 54.5757 29.2273L54.1764 30.3864C54.106 30.3636 54.0081 30.3352 53.8828 30.3011C53.7615 30.267 53.601 30.25 53.4014 30.25C52.9434 30.25 52.6127 30.3617 52.4091 30.5852C52.2095 30.8087 52.1097 31.1364 52.1097 31.5682V41.1818H50.724Z" fill="#161515" fill-opacity="0.71"/>
<path d="M59.4812 41.3636C58.6123 41.3636 57.8627 41.178 57.2325 40.8068C56.6062 40.4318 56.1228 39.9091 55.7822 39.2386C55.4456 38.5644 55.2773 37.7803 55.2773 36.8864C55.2773 35.9924 55.4456 35.2045 55.7822 34.5227C56.1228 33.8371 56.5964 33.303 57.2031 32.9205C57.8138 32.5341 58.5262 32.3409 59.3403 32.3409C59.81 32.3409 60.2739 32.4167 60.7318 32.5682C61.1898 32.7197 61.6067 32.9659 61.9825 33.3068C62.3582 33.6439 62.6577 34.0909 62.8808 34.6477C63.1039 35.2045 63.2155 35.8902 63.2155 36.7045V37.2727H56.2637V36.1136H61.8063C61.8063 35.6212 61.7045 35.1818 61.501 34.7955C61.3014 34.4091 61.0156 34.1042 60.6438 33.8807C60.2758 33.6572 59.8414 33.5455 59.3403 33.5455C58.7884 33.5455 58.3109 33.678 57.9077 33.9432C57.5084 34.2045 57.2012 34.5455 56.9859 34.9659C56.7706 35.3864 56.663 35.8371 56.663 36.3182V37.0909C56.663 37.75 56.7804 38.3087 57.0152 38.767C57.254 39.2216 57.5848 39.5682 58.0075 39.8068C58.4303 40.0417 58.9215 40.1591 59.4812 40.1591C59.8453 40.1591 60.1741 40.1098 60.4676 40.0114C60.7651 39.9091 61.0215 39.7576 61.2368 39.5568C61.4521 39.3523 61.6184 39.0985 61.7359 38.7955L63.0745 39.1591C62.9336 39.5985 62.6968 39.9848 62.3641 40.3182C62.0314 40.6477 61.6204 40.9053 61.1311 41.0909C60.6418 41.2727 60.0919 41.3636 59.4812 41.3636Z" fill="#161515" fill-opacity="0.71"/>
<path d="M69.2454 32.4545V33.5909H64.5718V32.4545H69.2454ZM65.9339 30.3636H67.3196V38.6818C67.3196 39.0606 67.3763 39.3447 67.4898 39.5341C67.6073 39.7197 67.756 39.8447 67.9361 39.9091C68.12 39.9697 68.3138 40 68.5173 40C68.67 40 68.7953 39.9924 68.8931 39.9773C68.991 39.9583 69.0693 39.9432 69.128 39.9318L69.4098 41.1364C69.3159 41.1705 69.1847 41.2045 69.0164 41.2386C68.8481 41.2765 68.6348 41.2955 68.3764 41.2955C67.985 41.2955 67.6014 41.214 67.2256 41.0511C66.8538 40.8883 66.5446 40.6402 66.298 40.3068C66.0553 39.9735 65.9339 39.553 65.9339 39.0455V30.3636Z" fill="#161515" fill-opacity="0.71"/>
<path d="M71.3298 41.1818V32.4545H72.7154V41.1818H71.3298ZM72.0343 31C71.7642 31 71.5313 30.911 71.3356 30.733C71.1438 30.5549 71.0479 30.3409 71.0479 30.0909C71.0479 29.8409 71.1438 29.6269 71.3356 29.4489C71.5313 29.2708 71.7642 29.1818 72.0343 29.1818C72.3044 29.1818 72.5353 29.2708 72.7271 29.4489C72.9229 29.6269 73.0207 29.8409 73.0207 30.0909C73.0207 30.3409 72.9229 30.5549 72.7271 30.733C72.5353 30.911 72.3044 31 72.0343 31Z" fill="#161515" fill-opacity="0.71"/>
<path d="M79.2694 32.4545V33.5909H74.4078V32.4545H79.2694ZM75.864 41.1818V31.25C75.864 30.75 75.9853 30.3333 76.228 30C76.4707 29.6667 76.7858 29.4167 77.1733 29.25C77.5608 29.0833 77.9698 29 78.4004 29C78.7409 29 79.0189 29.0265 79.2341 29.0795C79.4494 29.1326 79.6099 29.1818 79.7156 29.2273L79.3163 30.3864C79.2459 30.3636 79.148 30.3352 79.0228 30.3011C78.9014 30.267 78.7409 30.25 78.5413 30.25C78.0833 30.25 77.7526 30.3617 77.549 30.5852C77.3494 30.8087 77.2496 31.1364 77.2496 31.5682V41.1818H75.864Z" fill="#161515" fill-opacity="0.71"/>
<path d="M87.2281 34.4091L85.9833 34.75C85.905 34.5492 85.7896 34.3542 85.6369 34.1648C85.4882 33.9716 85.2846 33.8125 85.0263 33.6875C84.768 33.5625 84.4372 33.5 84.034 33.5C83.4821 33.5 83.0222 33.6231 82.6542 33.8693C82.2902 34.1117 82.1082 34.4205 82.1082 34.7955C82.1082 35.1288 82.2335 35.392 82.484 35.5852C82.7345 35.7784 83.1259 35.9394 83.6583 36.0682L84.9969 36.3864C85.8033 36.5758 86.4041 36.8655 86.7995 37.2557C87.1948 37.642 87.3925 38.1402 87.3925 38.75C87.3925 39.25 87.2437 39.697 86.9463 40.0909C86.6527 40.4848 86.2417 40.7955 85.7132 41.0227C85.1848 41.25 84.5703 41.3636 83.8696 41.3636C82.9498 41.3636 82.1884 41.1705 81.5856 40.7841C80.9828 40.3977 80.6012 39.8333 80.4407 39.0909L81.7559 38.7727C81.8812 39.2424 82.118 39.5947 82.4664 39.8295C82.8186 40.0644 83.2786 40.1818 83.8461 40.1818C84.492 40.1818 85.0048 40.0492 85.3845 39.7841C85.7681 39.5152 85.9599 39.1932 85.9599 38.8182C85.9599 38.5152 85.8503 38.2614 85.6311 38.0568C85.4118 37.8485 85.0752 37.6932 84.6212 37.5909L83.1181 37.25C82.2922 37.0606 81.6855 36.767 81.298 36.3693C80.9143 35.9678 80.7225 35.4659 80.7225 34.8636C80.7225 34.3712 80.8654 33.9356 81.1512 33.5568C81.4408 33.178 81.8342 32.8807 82.3313 32.6648C82.8323 32.4489 83.3999 32.3409 84.034 32.3409C84.9265 32.3409 85.6271 32.5303 86.136 32.9091C86.6488 33.2879 87.0128 33.7879 87.2281 34.4091Z" fill="#161515" fill-opacity="0.71"/>
<path d="M98.0506 32.4545V33.5909H93.3769V32.4545H98.0506ZM94.7391 30.3636H96.1247V38.6818C96.1247 39.0606 96.1815 39.3447 96.295 39.5341C96.4124 39.7197 96.5612 39.8447 96.7412 39.9091C96.9252 39.9697 97.119 40 97.3225 40C97.4752 40 97.6004 39.9924 97.6983 39.9773C97.7961 39.9583 97.8744 39.9432 97.9331 39.9318L98.215 41.1364C98.121 41.1705 97.9899 41.2045 97.8216 41.2386C97.6533 41.2765 97.4399 41.2955 97.1816 41.2955C96.7902 41.2955 96.4066 41.214 96.0308 41.0511C95.6589 40.8883 95.3497 40.6402 95.1031 40.3068C94.8604 39.9735 94.7391 39.553 94.7391 39.0455V30.3636Z" fill="#161515" fill-opacity="0.71"/>
<path d="M103.702 41.3636C102.888 41.3636 102.173 41.1761 101.559 40.8011C100.948 40.4261 100.471 39.9015 100.126 39.2273C99.7856 38.553 99.6153 37.7652 99.6153 36.8636C99.6153 35.9545 99.7856 35.161 100.126 34.483C100.471 33.8049 100.948 33.2784 101.559 32.9034C102.173 32.5284 102.888 32.3409 103.702 32.3409C104.516 32.3409 105.228 32.5284 105.839 32.9034C106.454 33.2784 106.931 33.8049 107.272 34.483C107.616 35.161 107.788 35.9545 107.788 36.8636C107.788 37.7652 107.616 38.553 107.272 39.2273C106.931 39.9015 106.454 40.4261 105.839 40.8011C105.228 41.1761 104.516 41.3636 103.702 41.3636ZM103.702 40.1591C104.32 40.1591 104.829 40.0057 105.228 39.6989C105.628 39.392 105.923 38.9886 106.115 38.4886C106.307 37.9886 106.403 37.447 106.403 36.8636C106.403 36.2803 106.307 35.7367 106.115 35.233C105.923 34.7292 105.628 34.322 105.228 34.0114C104.829 33.7008 104.32 33.5455 103.702 33.5455C103.083 33.5455 102.574 33.7008 102.175 34.0114C101.776 34.322 101.48 34.7292 101.289 35.233C101.097 35.7367 101.001 36.2803 101.001 36.8636C101.001 37.447 101.097 37.9886 101.289 38.4886C101.48 38.9886 101.776 39.392 102.175 39.6989C102.574 40.0057 103.083 40.1591 103.702 40.1591Z" fill="#161515" fill-opacity="0.71"/>
<path d="M113.826 32.4545V33.5909H109.152V32.4545H113.826ZM110.514 30.3636H111.9V38.6818C111.9 39.0606 111.957 39.3447 112.07 39.5341C112.187 39.7197 112.336 39.8447 112.516 39.9091C112.7 39.9697 112.894 40 113.098 40C113.25 40 113.375 39.9924 113.473 39.9773C113.571 39.9583 113.649 39.9432 113.708 39.9318L113.99 41.1364C113.896 41.1705 113.765 41.2045 113.597 41.2386C113.428 41.2765 113.215 41.2955 112.957 41.2955C112.565 41.2955 112.182 41.214 111.806 41.0511C111.434 40.8883 111.125 40.6402 110.878 40.3068C110.635 39.9735 110.514 39.553 110.514 39.0455V30.3636Z" fill="#161515" fill-opacity="0.71"/>
<path d="M118.564 41.3864C117.992 41.3864 117.474 41.2822 117.008 41.0739C116.542 40.8617 116.172 40.5568 115.898 40.1591C115.624 39.7576 115.487 39.2727 115.487 38.7045C115.487 38.2045 115.589 37.7992 115.793 37.4886C115.996 37.1742 116.268 36.928 116.609 36.75C116.949 36.572 117.325 36.4394 117.736 36.3523C118.151 36.2614 118.568 36.1894 118.987 36.1364C119.535 36.0682 119.979 36.017 120.319 35.983C120.664 35.9451 120.914 35.8826 121.071 35.7955C121.231 35.7083 121.312 35.5568 121.312 35.3409V35.2955C121.312 34.7348 121.153 34.2992 120.836 33.9886C120.523 33.678 120.047 33.5227 119.409 33.5227C118.748 33.5227 118.229 33.6629 117.853 33.9432C117.478 34.2235 117.213 34.5227 117.061 34.8409L115.746 34.3864C115.98 33.8561 116.294 33.4432 116.685 33.1477C117.08 32.8485 117.511 32.6402 117.977 32.5227C118.446 32.4015 118.908 32.3409 119.362 32.3409C119.652 32.3409 119.985 32.375 120.36 32.4432C120.74 32.5076 121.106 32.642 121.458 32.8466C121.815 33.0511 122.11 33.3598 122.345 33.7727C122.58 34.1856 122.697 34.7386 122.697 35.4318V41.1818H121.312V40H121.241C121.147 40.1894 120.991 40.392 120.771 40.608C120.552 40.8239 120.261 41.0076 119.897 41.1591C119.533 41.3106 119.088 41.3864 118.564 41.3864ZM118.775 40.1818C119.323 40.1818 119.785 40.0777 120.161 39.8693C120.541 39.661 120.826 39.392 121.018 39.0625C121.214 38.733 121.312 38.3864 121.312 38.0227V36.7955C121.253 36.8636 121.124 36.9261 120.924 36.983C120.728 37.036 120.501 37.0833 120.243 37.125C119.989 37.1629 119.74 37.197 119.497 37.2273C119.259 37.2538 119.065 37.2765 118.916 37.2955C118.556 37.3409 118.219 37.4148 117.906 37.517C117.597 37.6155 117.346 37.7652 117.155 37.9659C116.967 38.1629 116.873 38.4318 116.873 38.7727C116.873 39.2386 117.051 39.5909 117.407 39.8295C117.767 40.0644 118.223 40.1818 118.775 40.1818Z" fill="#161515" fill-opacity="0.71"/>
<path d="M126.612 29.5455V41.1818H125.226V29.5455H126.612Z" fill="#161515" fill-opacity="0.71"/>
<path d="M130.16 41.2727C129.87 41.2727 129.622 41.1723 129.414 40.9716C129.207 40.7708 129.103 40.5303 129.103 40.25C129.103 39.9697 129.207 39.7292 129.414 39.5284C129.622 39.3277 129.87 39.2273 130.16 39.2273C130.45 39.2273 130.698 39.3277 130.906 39.5284C131.113 39.7292 131.217 39.9697 131.217 40.25C131.217 40.4356 131.168 40.6061 131.07 40.7614C130.976 40.9167 130.849 41.0417 130.688 41.1364C130.532 41.2273 130.356 41.2727 130.16 41.2727ZM130.16 34.7955C129.87 34.7955 129.622 34.6951 129.414 34.4943C129.207 34.2936 129.103 34.053 129.103 33.7727C129.103 33.4924 129.207 33.2519 129.414 33.0511C129.622 32.8504 129.87 32.75 130.16 32.75C130.45 32.75 130.698 32.8504 130.906 33.0511C131.113 33.2519 131.217 33.4924 131.217 33.7727C131.217 33.9583 131.168 34.1288 131.07 34.2841C130.976 34.4394 130.849 34.5644 130.688 34.6591C130.532 34.75 130.356 34.7955 130.16 34.7955Z" fill="#161515" fill-opacity="0.71"/>
<path d="M19.6934 58.8182V76.2727H17.5092V61.0341H17.4036L13 63.8636V61.7159L17.5092 58.8182H19.6934Z" fill="#FF6B2C"/>
<path d="M30.764 76.5114C29.437 76.5114 28.3068 76.1619 27.3732 75.4631C26.4397 74.7585 25.7263 73.7386 25.2331 72.4034C24.7399 71.0625 24.4933 69.4432 24.4933 67.5455C24.4933 65.6591 24.7399 64.0483 25.2331 62.7131C25.7322 61.3722 26.4485 60.3494 27.382 59.6449C28.3215 58.9347 29.4488 58.5795 30.764 58.5795C32.0792 58.5795 33.2035 58.9347 34.1371 59.6449C35.0765 60.3494 35.7928 61.3722 36.286 62.7131C36.7851 64.0483 37.0346 65.6591 37.0346 67.5455C37.0346 69.4432 36.788 71.0625 36.2948 72.4034C35.8016 73.7386 35.0883 74.7585 34.1547 75.4631C33.2212 76.1619 32.0909 76.5114 30.764 76.5114ZM30.764 74.6364C32.0792 74.6364 33.1008 74.0227 33.8288 72.7955C34.5569 71.5682 34.9209 69.8182 34.9209 67.5455C34.9209 66.0341 34.7536 64.7472 34.4189 63.6847C34.0901 62.6222 33.6145 61.8125 32.9922 61.2557C32.3757 60.6989 31.6329 60.4205 30.764 60.4205C29.4605 60.4205 28.4418 61.0426 27.7079 62.2869C26.974 63.5256 26.607 65.2784 26.607 67.5455C26.607 69.0568 26.7714 70.3409 27.1002 71.3977C27.429 72.4545 27.9016 73.2585 28.5181 73.8097C29.1405 74.3608 29.8891 74.6364 30.764 74.6364Z" fill="#FF6B2C"/>
<path d="M46.2645 76.5114C44.9376 76.5114 43.8073 76.1619 42.8738 75.4631C41.9402 74.7585 41.2268 73.7386 40.7336 72.4034C40.2404 71.0625 39.9938 69.4432 39.9938 67.5455C39.9938 65.6591 40.2404 64.0483 40.7336 62.7131C41.2327 61.3722 41.949 60.3494 42.8826 59.6449C43.822 58.9347 44.9493 58.5795 46.2645 58.5795C47.5797 58.5795 48.7041 58.9347 49.6376 59.6449C50.5771 60.3494 51.2934 61.3722 51.7866 62.7131C52.2856 64.0483 52.5352 65.6591 52.5352 67.5455C52.5352 69.4432 52.2886 71.0625 51.7954 72.4034C51.3022 73.7386 50.5888 74.7585 49.6552 75.4631C48.7217 76.1619 47.5914 76.5114 46.2645 76.5114ZM46.2645 74.6364C47.5797 74.6364 48.6013 74.0227 49.3294 72.7955C50.0574 71.5682 50.4215 69.8182 50.4215 67.5455C50.4215 66.0341 50.2541 64.7472 49.9195 63.6847C49.5907 62.6222 49.1151 61.8125 48.4927 61.2557C47.8762 60.6989 47.1335 60.4205 46.2645 60.4205C44.961 60.4205 43.9424 61.0426 43.2084 62.2869C42.4745 63.5256 42.1075 65.2784 42.1075 67.5455C42.1075 69.0568 42.2719 70.3409 42.6007 71.3977C42.9295 72.4545 43.4022 73.2585 44.0187 73.8097C44.6411 74.3608 45.3897 74.6364 46.2645 74.6364Z" fill="#FF6B2C"/>
<path d="M63.1742 76.2727V58.8182H74.0598V60.6932H65.3583V66.5909H73.4961V68.4659H65.3583V74.3977H74.2007V76.2727H63.1742Z" fill="#FF6B2C"/>
<path d="M79.7932 68.3977V76.2727H77.7147V63.1818H79.7227V65.2273H79.8989C80.216 64.5625 80.6974 64.0284 81.3433 63.625C81.9891 63.2159 82.8229 63.0114 83.8445 63.0114C84.7604 63.0114 85.5619 63.1932 86.2488 63.5568C86.9358 63.9148 87.4701 64.4602 87.8517 65.1932C88.2334 65.9205 88.4242 66.8409 88.4242 67.9545V76.2727H86.3457V68.0909C86.3457 67.0625 86.0697 66.2614 85.5178 65.6875C84.9659 65.108 84.2085 64.8182 83.2456 64.8182C82.5821 64.8182 81.9891 64.9574 81.4666 65.2358C80.9499 65.5142 80.5418 65.9205 80.2424 66.4545C79.9429 66.9886 79.7932 67.6364 79.7932 68.3977Z" fill="#FF6B2C"/>
<path d="M98.2463 63.1818V64.8864H90.954V63.1818H98.2463ZM93.1382 76.2727V61.375C93.1382 60.625 93.3202 60 93.6842 59.5C94.0483 59 94.5209 58.625 95.1022 58.375C95.6835 58.125 96.297 58 96.9429 58C97.4537 58 97.8706 58.0398 98.1935 58.1193C98.5164 58.1989 98.7571 58.2727 98.9157 58.3409L98.3168 60.0795C98.2111 60.0455 98.0643 60.0028 97.8764 59.9517C97.6944 59.9006 97.4537 59.875 97.1543 59.875C96.4673 59.875 95.9712 60.0426 95.6658 60.3778C95.3664 60.7131 95.2167 61.2045 95.2167 61.8523V76.2727H93.1382Z" fill="#FF6B2C"/>
<path d="M104.753 76.5795C103.895 76.5795 103.117 76.4233 102.419 76.1108C101.72 75.7926 101.165 75.3352 100.754 74.7386C100.343 74.1364 100.138 73.4091 100.138 72.5568C100.138 71.8068 100.29 71.1989 100.596 70.733C100.901 70.2614 101.309 69.892 101.82 69.625C102.331 69.358 102.894 69.1591 103.511 69.0284C104.133 68.892 104.758 68.7841 105.387 68.7045C106.209 68.6023 106.875 68.5256 107.386 68.4744C107.903 68.4176 108.278 68.3239 108.513 68.1932C108.754 68.0625 108.874 67.8352 108.874 67.5114V67.4432C108.874 66.6023 108.637 65.9489 108.161 65.483C107.691 65.017 106.978 64.7841 106.021 64.7841C105.029 64.7841 104.251 64.9943 103.687 65.4148C103.123 65.8352 102.727 66.2841 102.498 66.7614L100.525 66.0795C100.877 65.2841 101.347 64.6648 101.934 64.2216C102.527 63.7727 103.173 63.4602 103.872 63.2841C104.576 63.1023 105.269 63.0114 105.95 63.0114C106.385 63.0114 106.884 63.0625 107.448 63.1648C108.017 63.2614 108.566 63.4631 109.095 63.7699C109.629 64.0767 110.072 64.5398 110.424 65.1591C110.777 65.7784 110.953 66.608 110.953 67.6477V76.2727H108.874V74.5H108.769C108.628 74.7841 108.393 75.0881 108.064 75.4119C107.735 75.7358 107.298 76.0114 106.752 76.2386C106.206 76.4659 105.539 76.5795 104.753 76.5795ZM105.07 74.7727C105.892 74.7727 106.584 74.6165 107.148 74.304C107.718 73.9915 108.146 73.5881 108.434 73.0938C108.728 72.5994 108.874 72.0795 108.874 71.5341V69.6932C108.786 69.7955 108.592 69.8892 108.293 69.9744C107.999 70.054 107.659 70.125 107.271 70.1875C106.89 70.2443 106.517 70.2955 106.153 70.3409C105.795 70.3807 105.504 70.4148 105.281 70.4432C104.741 70.5114 104.236 70.6222 103.766 70.7756C103.302 70.9233 102.927 71.1477 102.639 71.4489C102.357 71.7443 102.216 72.1477 102.216 72.6591C102.216 73.358 102.483 73.8864 103.018 74.2443C103.558 74.5966 104.242 74.7727 105.07 74.7727Z" fill="#FF6B2C"/>
<path d="M116.825 68.3977V76.2727H114.746V63.1818H116.754V65.2273H116.931C117.248 64.5625 117.729 64.0284 118.375 63.625C119.021 63.2159 119.855 63.0114 120.876 63.0114C121.792 63.0114 122.594 63.1932 123.281 63.5568C123.968 63.9148 124.502 64.4602 124.883 65.1932C125.265 65.9205 125.456 66.8409 125.456 67.9545V76.2727H123.377V68.0909C123.377 67.0625 123.101 66.2614 122.55 65.6875C121.998 65.108 121.24 64.8182 120.277 64.8182C119.614 64.8182 119.021 64.9574 118.498 65.2358C117.982 65.5142 117.574 65.9205 117.274 66.4545C116.975 66.9886 116.825 67.6364 116.825 68.3977Z" fill="#FF6B2C"/>
<path d="M135.137 63.1818V64.8864H128.127V63.1818H135.137ZM130.17 60.0455H132.248V72.5227C132.248 73.0909 132.334 73.517 132.504 73.8011C132.68 74.0795 132.903 74.267 133.173 74.3636C133.449 74.4545 133.74 74.5 134.045 74.5C134.274 74.5 134.462 74.4886 134.609 74.4659C134.756 74.4375 134.873 74.4148 134.961 74.3977L135.384 76.2045C135.243 76.2557 135.046 76.3068 134.794 76.358C134.541 76.4148 134.221 76.4432 133.834 76.4432C133.247 76.4432 132.671 76.321 132.108 76.0767C131.55 75.8324 131.086 75.4602 130.716 74.9602C130.352 74.4602 130.17 73.8295 130.17 73.0682V60.0455Z" fill="#FF6B2C"/>
<path d="M147.604 66.1136L145.737 66.625C145.619 66.3239 145.446 66.0313 145.217 65.7472C144.994 65.4574 144.688 65.2188 144.301 65.0313C143.913 64.8438 143.417 64.75 142.813 64.75C141.985 64.75 141.295 64.9347 140.743 65.304C140.197 65.6676 139.924 66.1307 139.924 66.6932C139.924 67.1932 140.112 67.5881 140.487 67.8778C140.863 68.1676 141.45 68.4091 142.249 68.6023L144.257 69.0795C145.466 69.3636 146.368 69.7983 146.961 70.3835C147.554 70.9631 147.85 71.7102 147.85 72.625C147.85 73.375 147.627 74.0455 147.181 74.6364C146.741 75.2273 146.124 75.6932 145.331 76.0341C144.539 76.375 143.617 76.5455 142.566 76.5455C141.186 76.5455 140.044 76.2557 139.14 75.6761C138.236 75.0966 137.663 74.25 137.423 73.1364L139.395 72.6591C139.583 73.3636 139.939 73.892 140.461 74.2443C140.989 74.5966 141.679 74.7727 142.531 74.7727C143.5 74.7727 144.269 74.5739 144.838 74.1761C145.414 73.7727 145.701 73.2898 145.701 72.7273C145.701 72.2727 145.537 71.892 145.208 71.5852C144.879 71.2727 144.374 71.0398 143.693 70.8864L141.439 70.375C140.2 70.0909 139.29 69.6506 138.708 69.054C138.133 68.4517 137.845 67.6989 137.845 66.7955C137.845 66.0568 138.06 65.4034 138.488 64.8352C138.923 64.267 139.513 63.821 140.258 63.4972C141.01 63.1733 141.861 63.0114 142.813 63.0114C144.151 63.0114 145.202 63.2955 145.966 63.8636C146.735 64.4318 147.281 65.1818 147.604 66.1136Z" fill="#FF6B2C"/>
</svg>
