<svg width="160" height="135" viewBox="0 0 160 135" fill="none" xmlns="http://www.w3.org/2000/svg">
<rect x="0.5" y="0.5" width="159" height="134" rx="7.5" fill="white" stroke="#B4A9A9"/>
<path d="M40.8991 77.2386C40.1832 77.2273 39.4673 77.0909 38.7514 76.8295C38.0355 76.5682 37.3821 76.1278 36.7912 75.5085C36.2003 74.8835 35.7259 74.0398 35.3679 72.9773C35.0099 71.9091 34.831 70.5682 34.831 68.9545C34.831 67.4091 34.9759 66.0398 35.2656 64.8466C35.5554 63.6477 35.9759 62.6392 36.527 61.821C37.0781 60.9972 37.7429 60.3722 38.5213 59.946C39.3054 59.5199 40.1889 59.3068 41.1719 59.3068C42.1491 59.3068 43.0185 59.5028 43.7798 59.8949C44.5469 60.2812 45.1719 60.821 45.6548 61.5142C46.1378 62.2074 46.4503 63.0057 46.5923 63.9091H44.5128C44.3196 63.125 43.9446 62.4744 43.3878 61.9574C42.831 61.4403 42.0923 61.1818 41.1719 61.1818C39.8196 61.1818 38.7543 61.7699 37.9759 62.946C37.2031 64.1222 36.8139 65.7727 36.8082 67.8977H36.9446C37.2628 67.4148 37.6406 67.0028 38.0781 66.6619C38.5213 66.3153 39.0099 66.0483 39.544 65.8608C40.0781 65.6733 40.6435 65.5795 41.2401 65.5795C42.2401 65.5795 43.1548 65.8295 43.9844 66.3295C44.8139 66.8239 45.4787 67.5085 45.9787 68.3835C46.4787 69.2528 46.7287 70.25 46.7287 71.375C46.7287 72.4545 46.4872 73.4432 46.0043 74.3409C45.5213 75.233 44.8423 75.9432 43.9673 76.4716C43.098 76.9943 42.0753 77.25 40.8991 77.2386ZM40.8991 75.3636C41.6151 75.3636 42.2571 75.1847 42.8253 74.8267C43.3991 74.4687 43.8509 73.9886 44.1804 73.3864C44.5156 72.7841 44.6832 72.1136 44.6832 71.375C44.6832 70.6534 44.5213 69.9972 44.1974 69.4062C43.8793 68.8097 43.4389 68.3352 42.8764 67.983C42.3196 67.6307 41.6832 67.4545 40.9673 67.4545C40.4276 67.4545 39.9247 67.5625 39.4588 67.7784C38.9929 67.9886 38.5838 68.2784 38.2315 68.6477C37.8849 69.017 37.6122 69.4403 37.4134 69.9176C37.2145 70.3892 37.1151 70.8864 37.1151 71.4091C37.1151 72.1023 37.277 72.75 37.6009 73.3523C37.9304 73.9545 38.3793 74.4403 38.9474 74.8097C39.5213 75.179 40.1719 75.3636 40.8991 75.3636ZM55.7734 77.2386C54.4893 77.2386 53.3956 76.8892 52.4922 76.1903C51.5888 75.4858 50.8984 74.4659 50.4212 73.1307C49.9439 71.7898 49.7053 70.1705 49.7053 68.2727C49.7053 66.3864 49.9439 64.7756 50.4212 63.4403C50.9041 62.0994 51.5973 61.0767 52.5007 60.3722C53.4098 59.6619 54.5007 59.3068 55.7734 59.3068C57.0462 59.3068 58.1342 59.6619 59.0376 60.3722C59.9467 61.0767 60.6399 62.0994 61.1172 63.4403C61.6001 64.7756 61.8416 66.3864 61.8416 68.2727C61.8416 70.1705 61.603 71.7898 61.1257 73.1307C60.6484 74.4659 59.9581 75.4858 59.0547 76.1903C58.1513 76.8892 57.0575 77.2386 55.7734 77.2386ZM55.7734 75.3636C57.0462 75.3636 58.0348 74.75 58.7393 73.5227C59.4439 72.2955 59.7962 70.5455 59.7962 68.2727C59.7962 66.7614 59.6342 65.4744 59.3104 64.4119C58.9922 63.3494 58.532 62.5398 57.9297 61.983C57.3331 61.4261 56.6143 61.1477 55.7734 61.1477C54.5121 61.1477 53.5263 61.7699 52.8161 63.0142C52.1058 64.2528 51.7507 66.0057 51.7507 68.2727C51.7507 69.7841 51.9098 71.0682 52.228 72.125C52.5462 73.1818 53.0036 73.9858 53.6001 74.5369C54.2024 75.0881 54.9268 75.3636 55.7734 75.3636ZM72.1371 77V59.5455H82.603V61.4205H74.2507V67.3182H81.8189V69.1932H74.2507V77H72.1371ZM85.9503 77V63.9091H87.9616V77H85.9503ZM86.973 61.7273C86.581 61.7273 86.2429 61.5938 85.9588 61.3267C85.6804 61.0597 85.5412 60.7386 85.5412 60.3636C85.5412 59.9886 85.6804 59.6676 85.9588 59.4006C86.2429 59.1335 86.581 59 86.973 59C87.3651 59 87.7003 59.1335 87.9787 59.4006C88.2628 59.6676 88.4048 59.9886 88.4048 60.3636C88.4048 60.7386 88.2628 61.0597 87.9787 61.3267C87.7003 61.5938 87.3651 61.7273 86.973 61.7273ZM93.657 59.5455V77H91.6456V59.5455H93.657ZM99.3523 59.5455V77H97.3409V59.5455H99.3523ZM108.525 77.2727C107.263 77.2727 106.175 76.9943 105.261 76.4375C104.352 75.875 103.65 75.0909 103.156 74.0852C102.667 73.0739 102.423 71.8977 102.423 70.5568C102.423 69.2159 102.667 68.0341 103.156 67.0114C103.65 65.983 104.337 65.1818 105.218 64.608C106.104 64.0284 107.138 63.7386 108.32 63.7386C109.002 63.7386 109.675 63.8523 110.34 64.0795C111.005 64.3068 111.61 64.6761 112.156 65.1875C112.701 65.6932 113.136 66.3636 113.46 67.1989C113.783 68.0341 113.945 69.0625 113.945 70.2841V71.1364H103.854V69.3977H111.9C111.9 68.6591 111.752 68 111.457 67.4205C111.167 66.8409 110.752 66.3835 110.212 66.0483C109.678 65.7131 109.048 65.5455 108.32 65.5455C107.519 65.5455 106.826 65.7443 106.241 66.142C105.661 66.5341 105.215 67.0455 104.903 67.6761C104.59 68.3068 104.434 68.983 104.434 69.7045V70.8636C104.434 71.8523 104.604 72.6903 104.945 73.3778C105.292 74.0597 105.772 74.5795 106.386 74.9375C106.999 75.2898 107.712 75.4659 108.525 75.4659C109.053 75.4659 109.531 75.392 109.957 75.2443C110.388 75.0909 110.761 74.8636 111.073 74.5625C111.386 74.2557 111.627 73.875 111.798 73.4205L113.741 73.9659C113.536 74.625 113.192 75.2045 112.71 75.7045C112.227 76.1989 111.63 76.5852 110.92 76.8636C110.21 77.1364 109.411 77.2727 108.525 77.2727ZM126.278 66.8409L124.471 67.3523C124.357 67.0511 124.19 66.7585 123.968 66.4744C123.752 66.1847 123.457 65.946 123.082 65.7585C122.707 65.571 122.227 65.4773 121.641 65.4773C120.84 65.4773 120.173 65.6619 119.638 66.0312C119.11 66.3949 118.846 66.858 118.846 67.4205C118.846 67.9205 119.028 68.3153 119.391 68.6051C119.755 68.8949 120.323 69.1364 121.096 69.3295L123.039 69.8068C124.21 70.0909 125.082 70.5256 125.656 71.1108C126.229 71.6903 126.516 72.4375 126.516 73.3523C126.516 74.1023 126.3 74.7727 125.869 75.3636C125.442 75.9545 124.846 76.4205 124.079 76.7614C123.312 77.1023 122.42 77.2727 121.403 77.2727C120.067 77.2727 118.962 76.983 118.087 76.4034C117.212 75.8239 116.658 74.9773 116.425 73.8636L118.335 73.3864C118.516 74.0909 118.86 74.6193 119.366 74.9716C119.877 75.3239 120.545 75.5 121.369 75.5C122.306 75.5 123.05 75.3011 123.602 74.9034C124.158 74.5 124.437 74.017 124.437 73.4545C124.437 73 124.278 72.6193 123.96 72.3125C123.641 72 123.153 71.767 122.494 71.6136L120.312 71.1023C119.113 70.8182 118.232 70.3778 117.67 69.7812C117.113 69.179 116.835 68.4261 116.835 67.5227C116.835 66.7841 117.042 66.1307 117.457 65.5625C117.877 64.9943 118.448 64.5483 119.17 64.2244C119.897 63.9006 120.721 63.7386 121.641 63.7386C122.937 63.7386 123.954 64.0227 124.692 64.5909C125.437 65.1591 125.965 65.9091 126.278 66.8409Z" fill="#FF6B2C"/>
<path d="M48.7848 29.3636V41H47.4212L41.0803 31.8636H40.9666V41H39.5575V29.3636H40.9212L47.2848 38.5227H47.3984V29.3636H48.7848ZM54.968 41.1818C54.1802 41.1818 53.4889 40.9943 52.8942 40.6193C52.3033 40.2443 51.8411 39.7197 51.5078 39.0455C51.1783 38.3712 51.0135 37.5833 51.0135 36.6818C51.0135 35.7727 51.1783 34.9792 51.5078 34.3011C51.8411 33.6231 52.3033 33.0966 52.8942 32.7216C53.4889 32.3466 54.1802 32.1591 54.968 32.1591C55.7559 32.1591 56.4453 32.3466 57.0362 32.7216C57.6309 33.0966 58.093 33.6231 58.4226 34.3011C58.7559 34.9792 58.9226 35.7727 58.9226 36.6818C58.9226 37.5833 58.7559 38.3712 58.4226 39.0455C58.093 39.7197 57.6309 40.2443 57.0362 40.6193C56.4453 40.9943 55.7559 41.1818 54.968 41.1818ZM54.968 39.9773C55.5665 39.9773 56.0589 39.8239 56.4453 39.517C56.8317 39.2102 57.1177 38.8068 57.3033 38.3068C57.4889 37.8068 57.5817 37.2652 57.5817 36.6818C57.5817 36.0985 57.4889 35.5549 57.3033 35.0511C57.1177 34.5473 56.8317 34.1402 56.4453 33.8295C56.0589 33.5189 55.5665 33.3636 54.968 33.3636C54.3696 33.3636 53.8771 33.5189 53.4908 33.8295C53.1044 34.1402 52.8184 34.5473 52.6328 35.0511C52.4472 35.5549 52.3544 36.0985 52.3544 36.6818C52.3544 37.2652 52.4472 37.8068 52.6328 38.3068C52.8184 38.8068 53.1044 39.2102 53.4908 39.517C53.8771 39.8239 54.3696 39.9773 54.968 39.9773ZM60.9695 41V32.2727H62.2649V33.6364H62.3786C62.5604 33.1705 62.8539 32.8087 63.2592 32.5511C63.6645 32.2898 64.1513 32.1591 64.7195 32.1591C65.2952 32.1591 65.7744 32.2898 66.157 32.5511C66.5433 32.8087 66.8445 33.1705 67.0604 33.6364H67.1513C67.3748 33.1856 67.71 32.8277 68.157 32.5625C68.6039 32.2936 69.1399 32.1591 69.7649 32.1591C70.5452 32.1591 71.1835 32.4034 71.6797 32.892C72.1759 33.3769 72.424 34.1326 72.424 35.1591V41H71.0831V35.1591C71.0831 34.5152 70.907 34.0549 70.5547 33.7784C70.2024 33.5019 69.7876 33.3636 69.3104 33.3636C68.6967 33.3636 68.2214 33.5492 67.8842 33.9205C67.5471 34.2879 67.3786 34.7538 67.3786 35.3182V41H66.0149V35.0227C66.0149 34.5265 65.8539 34.1269 65.532 33.8239C65.21 33.517 64.7952 33.3636 64.2876 33.3636C63.9392 33.3636 63.6134 33.4564 63.3104 33.642C63.0111 33.8277 62.7687 34.0852 62.5831 34.4148C62.4013 34.7405 62.3104 35.1174 62.3104 35.5455V41H60.9695ZM75.0575 41V29.3636H76.3984V33.6591H76.5121C76.6106 33.5076 76.7469 33.3144 76.9212 33.0795C77.0992 32.8409 77.353 32.6288 77.6825 32.4432C78.0159 32.2538 78.4666 32.1591 79.0348 32.1591C79.7696 32.1591 80.4174 32.3428 80.978 32.7102C81.5386 33.0777 81.9761 33.5985 82.2905 34.2727C82.6049 34.947 82.7621 35.7424 82.7621 36.6591C82.7621 37.5833 82.6049 38.3845 82.2905 39.0625C81.9761 39.7367 81.5405 40.2595 80.9837 40.6307C80.4268 40.9981 79.7848 41.1818 79.0575 41.1818C78.4969 41.1818 78.0481 41.089 77.7109 40.9034C77.3738 40.714 77.1143 40.5 76.9325 40.2614C76.7507 40.0189 76.6106 39.8182 76.5121 39.6591H76.353V41H75.0575ZM76.3757 36.6364C76.3757 37.2955 76.4723 37.8769 76.6655 38.3807C76.8587 38.8807 77.1409 39.2727 77.5121 39.5568C77.8833 39.8371 78.3378 39.9773 78.8757 39.9773C79.4363 39.9773 79.9041 39.8295 80.2791 39.5341C80.6579 39.2348 80.942 38.8333 81.1314 38.3295C81.3246 37.822 81.4212 37.2576 81.4212 36.6364C81.4212 36.0227 81.3265 35.4697 81.1371 34.9773C80.9515 34.4811 80.6693 34.089 80.2905 33.8011C79.9155 33.5095 79.4439 33.3636 78.8757 33.3636C78.3303 33.3636 77.8719 33.5019 77.5007 33.7784C77.1295 34.0511 76.8492 34.4337 76.6598 34.9261C76.4704 35.4148 76.3757 35.9848 76.3757 36.6364ZM84.8132 41V32.2727H86.1087V33.5909H86.1996C86.3587 33.1591 86.6465 32.8087 87.0632 32.5398C87.4799 32.2708 87.9496 32.1364 88.4723 32.1364C88.5708 32.1364 88.6939 32.1383 88.8416 32.142C88.9893 32.1458 89.1011 32.1515 89.1768 32.1591V33.5227C89.1314 33.5114 89.0272 33.4943 88.8643 33.4716C88.7053 33.4451 88.5367 33.4318 88.3587 33.4318C87.9344 33.4318 87.5556 33.5208 87.2223 33.6989C86.8928 33.8731 86.6314 34.1155 86.4382 34.4261C86.2488 34.733 86.1541 35.0833 86.1541 35.4773V41H84.8132ZM94.1598 41.1818C93.3189 41.1818 92.5935 40.9962 91.9837 40.625C91.3776 40.25 90.9098 39.7273 90.5803 39.0568C90.2545 38.3826 90.0916 37.5985 90.0916 36.7045C90.0916 35.8106 90.2545 35.0227 90.5803 34.3409C90.9098 33.6553 91.3681 33.1212 91.9553 32.7386C92.5462 32.3523 93.2356 32.1591 94.0234 32.1591C94.478 32.1591 94.9268 32.2348 95.37 32.3864C95.8132 32.5379 96.2166 32.7841 96.5803 33.125C96.9439 33.4621 97.2337 33.9091 97.4496 34.4659C97.6655 35.0227 97.7734 35.7083 97.7734 36.5227V37.0909H91.0462V35.9318H96.4098C96.4098 35.4394 96.3113 35 96.1143 34.6136C95.9212 34.2273 95.6446 33.9223 95.2848 33.6989C94.9287 33.4754 94.5083 33.3636 94.0234 33.3636C93.4893 33.3636 93.0272 33.4962 92.6371 33.7614C92.2507 34.0227 91.9534 34.3636 91.745 34.7841C91.5367 35.2045 91.4325 35.6553 91.4325 36.1364V36.9091C91.4325 37.5682 91.5462 38.1269 91.7734 38.5852C92.0045 39.0398 92.3246 39.3864 92.7337 39.625C93.1428 39.8598 93.6181 39.9773 94.1598 39.9773C94.5121 39.9773 94.8303 39.928 95.1143 39.8295C95.4022 39.7273 95.6503 39.5758 95.8587 39.375C96.067 39.1705 96.228 38.9167 96.3416 38.6136L97.6371 38.9773C97.5007 39.4167 97.2715 39.803 96.9496 40.1364C96.6276 40.4659 96.2299 40.7235 95.7564 40.9091C95.2829 41.0909 94.7507 41.1818 94.1598 41.1818ZM105.995 34.2273L104.79 34.5682C104.715 34.3674 104.603 34.1723 104.455 33.983C104.311 33.7898 104.114 33.6307 103.864 33.5057C103.614 33.3807 103.294 33.3182 102.904 33.3182C102.37 33.3182 101.925 33.4413 101.569 33.6875C101.217 33.9299 101.04 34.2386 101.04 34.6136C101.04 34.947 101.162 35.2102 101.404 35.4034C101.647 35.5966 102.025 35.7576 102.54 35.8864L103.836 36.2045C104.616 36.3939 105.198 36.6837 105.58 37.0739C105.963 37.4602 106.154 37.9583 106.154 38.5682C106.154 39.0682 106.01 39.5152 105.722 39.9091C105.438 40.303 105.04 40.6136 104.529 40.8409C104.018 41.0682 103.423 41.1818 102.745 41.1818C101.855 41.1818 101.118 40.9886 100.535 40.6023C99.9515 40.2159 99.5821 39.6515 99.4268 38.9091L100.7 38.5909C100.821 39.0606 101.05 39.4129 101.387 39.6477C101.728 39.8826 102.173 40 102.722 40C103.347 40 103.844 39.8674 104.211 39.6023C104.582 39.3333 104.768 39.0114 104.768 38.6364C104.768 38.3333 104.662 38.0795 104.45 37.875C104.237 37.6667 103.912 37.5114 103.472 37.4091L102.018 37.0682C101.219 36.8788 100.631 36.5852 100.256 36.1875C99.8852 35.786 99.6996 35.2841 99.6996 34.6818C99.6996 34.1894 99.8378 33.7538 100.114 33.375C100.395 32.9962 100.775 32.6989 101.256 32.483C101.741 32.267 102.29 32.1591 102.904 32.1591C103.768 32.1591 104.446 32.3485 104.938 32.7273C105.434 33.1061 105.787 33.6061 105.995 34.2273ZM113.65 41.0909C113.37 41.0909 113.129 40.9905 112.928 40.7898C112.728 40.589 112.627 40.3485 112.627 40.0682C112.627 39.7879 112.728 39.5473 112.928 39.3466C113.129 39.1458 113.37 39.0455 113.65 39.0455C113.93 39.0455 114.171 39.1458 114.371 39.3466C114.572 39.5473 114.673 39.7879 114.673 40.0682C114.673 40.2538 114.625 40.4242 114.531 40.5795C114.44 40.7348 114.317 40.8598 114.161 40.9545C114.01 41.0455 113.839 41.0909 113.65 41.0909ZM113.65 34.6136C113.37 34.6136 113.129 34.5133 112.928 34.3125C112.728 34.1117 112.627 33.8712 112.627 33.5909C112.627 33.3106 112.728 33.0701 112.928 32.8693C113.129 32.6686 113.37 32.5682 113.65 32.5682C113.93 32.5682 114.171 32.6686 114.371 32.8693C114.572 33.0701 114.673 33.3106 114.673 33.5909C114.673 33.7765 114.625 33.947 114.531 34.1023C114.44 34.2576 114.317 34.3826 114.161 34.4773C114.01 34.5682 113.839 34.6136 113.65 34.6136Z" fill="black"/>
<path d="M34 92H131V95H34V92Z" fill="#EC6666"/>
<path d="M34 92H131V95H34V92Z" fill="#EC6666"/>
<path d="M34 92H131V95H34V92Z" fill="#EC6666"/>
<path d="M34 92H131V95H34V92Z" fill="#EC6666"/>
<path d="M34 92H131V95H34V92Z" fill="#EC6666"/>
<path d="M34 92H131V95H34V92Z" fill="#EC6666"/>
<path d="M34 92H131V95H34V92Z" fill="#FF6B2C"/>
</svg>
