<svg width="160" height="135" viewBox="0 0 160 135" fill="none" xmlns="http://www.w3.org/2000/svg">
<rect x="0.5" y="0.5" width="159" height="134" rx="7.5" fill="white" stroke="#B4A9A9"/>
<path d="M48.7848 29.3636V41H47.4212L41.0803 31.8636H40.9666V41H39.5575V29.3636H40.9212L47.2848 38.5227H47.3984V29.3636H48.7848ZM54.968 41.1818C54.1802 41.1818 53.4889 40.9943 52.8942 40.6193C52.3033 40.2443 51.8411 39.7197 51.5078 39.0455C51.1783 38.3712 51.0135 37.5833 51.0135 36.6818C51.0135 35.7727 51.1783 34.9792 51.5078 34.3011C51.8411 33.6231 52.3033 33.0966 52.8942 32.7216C53.4889 32.3466 54.1802 32.1591 54.968 32.1591C55.7559 32.1591 56.4453 32.3466 57.0362 32.7216C57.6309 33.0966 58.093 33.6231 58.4226 34.3011C58.7559 34.9792 58.9226 35.7727 58.9226 36.6818C58.9226 37.5833 58.7559 38.3712 58.4226 39.0455C58.093 39.7197 57.6309 40.2443 57.0362 40.6193C56.4453 40.9943 55.7559 41.1818 54.968 41.1818ZM54.968 39.9773C55.5665 39.9773 56.0589 39.8239 56.4453 39.517C56.8317 39.2102 57.1177 38.8068 57.3033 38.3068C57.4889 37.8068 57.5817 37.2652 57.5817 36.6818C57.5817 36.0985 57.4889 35.5549 57.3033 35.0511C57.1177 34.5473 56.8317 34.1402 56.4453 33.8295C56.0589 33.5189 55.5665 33.3636 54.968 33.3636C54.3696 33.3636 53.8771 33.5189 53.4908 33.8295C53.1044 34.1402 52.8184 34.5473 52.6328 35.0511C52.4472 35.5549 52.3544 36.0985 52.3544 36.6818C52.3544 37.2652 52.4472 37.8068 52.6328 38.3068C52.8184 38.8068 53.1044 39.2102 53.4908 39.517C53.8771 39.8239 54.3696 39.9773 54.968 39.9773ZM60.9695 41V32.2727H62.2649V33.6364H62.3786C62.5604 33.1705 62.8539 32.8087 63.2592 32.5511C63.6645 32.2898 64.1513 32.1591 64.7195 32.1591C65.2952 32.1591 65.7744 32.2898 66.157 32.5511C66.5433 32.8087 66.8445 33.1705 67.0604 33.6364H67.1513C67.3748 33.1856 67.71 32.8277 68.157 32.5625C68.6039 32.2936 69.1399 32.1591 69.7649 32.1591C70.5452 32.1591 71.1835 32.4034 71.6797 32.892C72.1759 33.3769 72.424 34.1326 72.424 35.1591V41H71.0831V35.1591C71.0831 34.5152 70.907 34.0549 70.5547 33.7784C70.2024 33.5019 69.7876 33.3636 69.3104 33.3636C68.6967 33.3636 68.2214 33.5492 67.8842 33.9205C67.5471 34.2879 67.3786 34.7538 67.3786 35.3182V41H66.0149V35.0227C66.0149 34.5265 65.8539 34.1269 65.532 33.8239C65.21 33.517 64.7952 33.3636 64.2876 33.3636C63.9392 33.3636 63.6134 33.4564 63.3104 33.642C63.0111 33.8277 62.7687 34.0852 62.5831 34.4148C62.4013 34.7405 62.3104 35.1174 62.3104 35.5455V41H60.9695ZM75.0575 41V29.3636H76.3984V33.6591H76.5121C76.6106 33.5076 76.7469 33.3144 76.9212 33.0795C77.0992 32.8409 77.353 32.6288 77.6825 32.4432C78.0159 32.2538 78.4666 32.1591 79.0348 32.1591C79.7696 32.1591 80.4174 32.3428 80.978 32.7102C81.5386 33.0777 81.9761 33.5985 82.2905 34.2727C82.6049 34.947 82.7621 35.7424 82.7621 36.6591C82.7621 37.5833 82.6049 38.3845 82.2905 39.0625C81.9761 39.7367 81.5405 40.2595 80.9837 40.6307C80.4268 40.9981 79.7848 41.1818 79.0575 41.1818C78.4969 41.1818 78.0481 41.089 77.7109 40.9034C77.3738 40.714 77.1143 40.5 76.9325 40.2614C76.7507 40.0189 76.6106 39.8182 76.5121 39.6591H76.353V41H75.0575ZM76.3757 36.6364C76.3757 37.2955 76.4723 37.8769 76.6655 38.3807C76.8587 38.8807 77.1409 39.2727 77.5121 39.5568C77.8833 39.8371 78.3378 39.9773 78.8757 39.9773C79.4363 39.9773 79.9041 39.8295 80.2791 39.5341C80.6579 39.2348 80.942 38.8333 81.1314 38.3295C81.3246 37.822 81.4212 37.2576 81.4212 36.6364C81.4212 36.0227 81.3265 35.4697 81.1371 34.9773C80.9515 34.4811 80.6693 34.089 80.2905 33.8011C79.9155 33.5095 79.4439 33.3636 78.8757 33.3636C78.3303 33.3636 77.8719 33.5019 77.5007 33.7784C77.1295 34.0511 76.8492 34.4337 76.6598 34.9261C76.4704 35.4148 76.3757 35.9848 76.3757 36.6364ZM84.8132 41V32.2727H86.1087V33.5909H86.1996C86.3587 33.1591 86.6465 32.8087 87.0632 32.5398C87.4799 32.2708 87.9496 32.1364 88.4723 32.1364C88.5708 32.1364 88.6939 32.1383 88.8416 32.142C88.9893 32.1458 89.1011 32.1515 89.1768 32.1591V33.5227C89.1314 33.5114 89.0272 33.4943 88.8643 33.4716C88.7053 33.4451 88.5367 33.4318 88.3587 33.4318C87.9344 33.4318 87.5556 33.5208 87.2223 33.6989C86.8928 33.8731 86.6314 34.1155 86.4382 34.4261C86.2488 34.733 86.1541 35.0833 86.1541 35.4773V41H84.8132ZM94.1598 41.1818C93.3189 41.1818 92.5935 40.9962 91.9837 40.625C91.3776 40.25 90.9098 39.7273 90.5803 39.0568C90.2545 38.3826 90.0916 37.5985 90.0916 36.7045C90.0916 35.8106 90.2545 35.0227 90.5803 34.3409C90.9098 33.6553 91.3681 33.1212 91.9553 32.7386C92.5462 32.3523 93.2356 32.1591 94.0234 32.1591C94.478 32.1591 94.9268 32.2348 95.37 32.3864C95.8132 32.5379 96.2166 32.7841 96.5803 33.125C96.9439 33.4621 97.2337 33.9091 97.4496 34.4659C97.6655 35.0227 97.7734 35.7083 97.7734 36.5227V37.0909H91.0462V35.9318H96.4098C96.4098 35.4394 96.3113 35 96.1143 34.6136C95.9212 34.2273 95.6446 33.9223 95.2848 33.6989C94.9287 33.4754 94.5083 33.3636 94.0234 33.3636C93.4893 33.3636 93.0272 33.4962 92.6371 33.7614C92.2507 34.0227 91.9534 34.3636 91.745 34.7841C91.5367 35.2045 91.4325 35.6553 91.4325 36.1364V36.9091C91.4325 37.5682 91.5462 38.1269 91.7734 38.5852C92.0045 39.0398 92.3246 39.3864 92.7337 39.625C93.1428 39.8598 93.6181 39.9773 94.1598 39.9773C94.5121 39.9773 94.8303 39.928 95.1143 39.8295C95.4022 39.7273 95.6503 39.5758 95.8587 39.375C96.067 39.1705 96.228 38.9167 96.3416 38.6136L97.6371 38.9773C97.5007 39.4167 97.2715 39.803 96.9496 40.1364C96.6276 40.4659 96.2299 40.7235 95.7564 40.9091C95.2829 41.0909 94.7507 41.1818 94.1598 41.1818ZM105.995 34.2273L104.79 34.5682C104.715 34.3674 104.603 34.1723 104.455 33.983C104.311 33.7898 104.114 33.6307 103.864 33.5057C103.614 33.3807 103.294 33.3182 102.904 33.3182C102.37 33.3182 101.925 33.4413 101.569 33.6875C101.217 33.9299 101.04 34.2386 101.04 34.6136C101.04 34.947 101.162 35.2102 101.404 35.4034C101.647 35.5966 102.025 35.7576 102.54 35.8864L103.836 36.2045C104.616 36.3939 105.198 36.6837 105.58 37.0739C105.963 37.4602 106.154 37.9583 106.154 38.5682C106.154 39.0682 106.01 39.5152 105.722 39.9091C105.438 40.303 105.04 40.6136 104.529 40.8409C104.018 41.0682 103.423 41.1818 102.745 41.1818C101.855 41.1818 101.118 40.9886 100.535 40.6023C99.9515 40.2159 99.5821 39.6515 99.4268 38.9091L100.7 38.5909C100.821 39.0606 101.05 39.4129 101.387 39.6477C101.728 39.8826 102.173 40 102.722 40C103.347 40 103.844 39.8674 104.211 39.6023C104.582 39.3333 104.768 39.0114 104.768 38.6364C104.768 38.3333 104.662 38.0795 104.45 37.875C104.237 37.6667 103.912 37.5114 103.472 37.4091L102.018 37.0682C101.219 36.8788 100.631 36.5852 100.256 36.1875C99.8852 35.786 99.6996 35.2841 99.6996 34.6818C99.6996 34.1894 99.8378 33.7538 100.114 33.375C100.395 32.9962 100.775 32.6989 101.256 32.483C101.741 32.267 102.29 32.1591 102.904 32.1591C103.768 32.1591 104.446 32.3485 104.938 32.7273C105.434 33.1061 105.787 33.6061 105.995 34.2273ZM113.65 41.0909C113.37 41.0909 113.129 40.9905 112.928 40.7898C112.728 40.589 112.627 40.3485 112.627 40.0682C112.627 39.7879 112.728 39.5473 112.928 39.3466C113.129 39.1458 113.37 39.0455 113.65 39.0455C113.93 39.0455 114.171 39.1458 114.371 39.3466C114.572 39.5473 114.673 39.7879 114.673 40.0682C114.673 40.2538 114.625 40.4242 114.531 40.5795C114.44 40.7348 114.317 40.8598 114.161 40.9545C114.01 41.0455 113.839 41.0909 113.65 41.0909ZM113.65 34.6136C113.37 34.6136 113.129 34.5133 112.928 34.3125C112.728 34.1117 112.627 33.8712 112.627 33.5909C112.627 33.3106 112.728 33.0701 112.928 32.8693C113.129 32.6686 113.37 32.5682 113.65 32.5682C113.93 32.5682 114.171 32.6686 114.371 32.8693C114.572 33.0701 114.673 33.3106 114.673 33.5909C114.673 33.7765 114.625 33.947 114.531 34.1023C114.44 34.2576 114.317 34.3826 114.161 34.4773C114.01 34.5682 113.839 34.6136 113.65 34.6136Z" fill="black"/>
<path d="M15.7259 73.4205V71.6818L23.3963 59.5455H24.6577V62.2386H23.8054L18.0099 71.4091V71.5455H28.3395V73.4205H15.7259ZM23.9418 77V72.892V72.0824V59.5455H25.9531V77H23.9418ZM37.2266 77.2386C35.9425 77.2386 34.8487 76.8892 33.9453 76.1903C33.0419 75.4858 32.3516 74.4659 31.8743 73.1307C31.397 71.7898 31.1584 70.1705 31.1584 68.2727C31.1584 66.3864 31.397 64.7756 31.8743 63.4403C32.3572 62.0994 33.0504 61.0767 33.9538 60.3722C34.8629 59.6619 35.9538 59.3068 37.2266 59.3068C38.4993 59.3068 39.5874 59.6619 40.4908 60.3722C41.3999 61.0767 42.093 62.0994 42.5703 63.4403C43.0533 64.7756 43.2947 66.3864 43.2947 68.2727C43.2947 70.1705 43.0561 71.7898 42.5788 73.1307C42.1016 74.4659 41.4112 75.4858 40.5078 76.1903C39.6044 76.8892 38.5107 77.2386 37.2266 77.2386ZM37.2266 75.3636C38.4993 75.3636 39.4879 74.75 40.1925 73.5227C40.897 72.2955 41.2493 70.5455 41.2493 68.2727C41.2493 66.7614 41.0874 65.4744 40.7635 64.4119C40.4453 63.3494 39.9851 62.5398 39.3828 61.983C38.7862 61.4261 38.0675 61.1477 37.2266 61.1477C35.9652 61.1477 34.9794 61.7699 34.2692 63.0142C33.5589 64.2528 33.2038 66.0057 33.2038 68.2727C33.2038 69.7841 33.3629 71.0682 33.6811 72.125C33.9993 73.1818 34.4567 73.9858 35.0533 74.5369C35.6555 75.0881 36.38 75.3636 37.2266 75.3636ZM65.522 65C65.3345 64.4261 65.0874 63.9119 64.7805 63.4574C64.4794 62.9972 64.1186 62.6051 63.6982 62.2812C63.2834 61.9574 62.8118 61.7102 62.2834 61.5398C61.755 61.3693 61.1754 61.2841 60.5447 61.2841C59.5107 61.2841 58.5703 61.5511 57.7237 62.0852C56.8771 62.6193 56.2038 63.4062 55.7038 64.446C55.2038 65.4858 54.9538 66.7614 54.9538 68.2727C54.9538 69.7841 55.2067 71.0597 55.7124 72.0994C56.218 73.1392 56.9027 73.9261 57.7663 74.4602C58.63 74.9943 59.6016 75.2614 60.6811 75.2614C61.6811 75.2614 62.5618 75.0483 63.3232 74.6222C64.0902 74.1903 64.6868 73.5824 65.1129 72.7983C65.5447 72.0085 65.7607 71.0795 65.7607 70.0114L66.4084 70.1477H61.1584V68.2727H67.8061V70.1477C67.8061 71.5852 67.4993 72.8352 66.8857 73.8977C66.2777 74.9602 65.4368 75.7841 64.3629 76.3693C63.2947 76.9489 62.0675 77.2386 60.6811 77.2386C59.1357 77.2386 57.7777 76.875 56.6072 76.1477C55.4425 75.4205 54.5334 74.3864 53.88 73.0455C53.2322 71.7045 52.9084 70.1136 52.9084 68.2727C52.9084 66.892 53.093 65.6506 53.4624 64.5483C53.8374 63.4403 54.3658 62.4972 55.0476 61.7188C55.7294 60.9403 56.5362 60.3438 57.468 59.929C58.3999 59.5142 59.4254 59.3068 60.5447 59.3068C61.4652 59.3068 62.3232 59.446 63.1186 59.7244C63.9197 59.9972 64.6328 60.3864 65.2578 60.892C65.8885 61.392 66.4141 61.9915 66.8345 62.6903C67.255 63.3835 67.5447 64.1534 67.7038 65H65.522ZM75.0057 77.3068C74.1761 77.3068 73.4233 77.1506 72.7472 76.8381C72.071 76.5199 71.5341 76.0625 71.1364 75.4659C70.7386 74.8636 70.5398 74.1364 70.5398 73.2841C70.5398 72.5341 70.6875 71.9261 70.983 71.4602C71.2784 70.9886 71.6733 70.6193 72.1676 70.3523C72.6619 70.0852 73.2074 69.8864 73.804 69.7557C74.4063 69.6193 75.0114 69.5114 75.6193 69.4318C76.4148 69.3295 77.0597 69.2528 77.554 69.2017C78.054 69.1449 78.4176 69.0511 78.6449 68.9205C78.8778 68.7898 78.9943 68.5625 78.9943 68.2386V68.1705C78.9943 67.3295 78.7642 66.6761 78.304 66.2102C77.8494 65.7443 77.1591 65.5114 76.233 65.5114C75.2727 65.5114 74.5199 65.7216 73.9744 66.142C73.429 66.5625 73.0455 67.0114 72.8239 67.4886L70.9148 66.8068C71.2557 66.0114 71.7102 65.392 72.2784 64.9489C72.8523 64.5 73.4773 64.1875 74.1534 64.0114C74.8352 63.8295 75.5057 63.7386 76.1648 63.7386C76.5852 63.7386 77.0682 63.7898 77.6136 63.892C78.1648 63.9886 78.696 64.1903 79.2074 64.4972C79.7244 64.804 80.1534 65.267 80.4943 65.8864C80.8352 66.5057 81.0057 67.3352 81.0057 68.375V77H78.9943V75.2273H78.892C78.7557 75.5114 78.5284 75.8153 78.2102 76.1392C77.892 76.4631 77.4688 76.7386 76.9403 76.9659C76.4119 77.1932 75.767 77.3068 75.0057 77.3068ZM75.3125 75.5C76.108 75.5 76.7784 75.3438 77.3239 75.0312C77.875 74.7188 78.2898 74.3153 78.5682 73.821C78.8523 73.3267 78.9943 72.8068 78.9943 72.2614V70.4205C78.9091 70.5227 78.7216 70.6165 78.4318 70.7017C78.1477 70.7812 77.8182 70.8523 77.4432 70.9148C77.0739 70.9716 76.7131 71.0227 76.3608 71.0682C76.0142 71.108 75.733 71.142 75.517 71.1705C74.9943 71.2386 74.5057 71.3494 74.0511 71.5028C73.6023 71.6506 73.2386 71.875 72.9602 72.1761C72.6875 72.4716 72.5511 72.875 72.5511 73.3864C72.5511 74.0852 72.8097 74.6136 73.3267 74.9716C73.8494 75.3239 74.5114 75.5 75.3125 75.5ZM84.6768 77V63.9091H86.62V65.8864H86.7564C86.995 65.2386 87.4268 64.7131 88.0518 64.3097C88.6768 63.9062 89.3814 63.7045 90.1655 63.7045C90.3132 63.7045 90.4979 63.7074 90.7195 63.7131C90.9411 63.7187 91.1087 63.7273 91.2223 63.7386V65.7841C91.1541 65.767 90.9979 65.7415 90.7536 65.7074C90.5149 65.6676 90.2621 65.6477 89.995 65.6477C89.3587 65.6477 88.7905 65.7812 88.2905 66.0483C87.7962 66.3097 87.4041 66.6733 87.1143 67.1392C86.8303 67.5994 86.6882 68.125 86.6882 68.7159V77H84.6768ZM98.5263 77.2727C97.299 77.2727 96.2422 76.983 95.3558 76.4034C94.4695 75.8239 93.7876 75.0256 93.3104 74.0085C92.8331 72.9915 92.5945 71.8295 92.5945 70.5227C92.5945 69.1932 92.8388 68.0199 93.3274 67.0028C93.8217 65.9801 94.5092 65.1818 95.3899 64.608C96.2763 64.0284 97.3104 63.7386 98.4922 63.7386C99.4126 63.7386 100.242 63.9091 100.981 64.25C101.719 64.5909 102.325 65.0682 102.796 65.6818C103.268 66.2955 103.56 67.0114 103.674 67.8295H101.663C101.509 67.233 101.168 66.7045 100.64 66.2443C100.117 65.7784 99.4126 65.5455 98.5263 65.5455C97.7422 65.5455 97.0547 65.75 96.4638 66.1591C95.8786 66.5625 95.4212 67.1335 95.0916 67.8722C94.7678 68.6051 94.6058 69.4659 94.6058 70.4545C94.6058 71.4659 94.7649 72.3466 95.0831 73.0966C95.407 73.8466 95.8615 74.429 96.4467 74.8438C97.0376 75.2585 97.7308 75.4659 98.5263 75.4659C99.049 75.4659 99.5234 75.375 99.9496 75.1932C100.376 75.0114 100.737 74.75 101.032 74.4091C101.327 74.0682 101.538 73.6591 101.663 73.1818H103.674C103.56 73.9545 103.279 74.6506 102.83 75.2699C102.387 75.8835 101.799 76.3722 101.066 76.7358C100.339 77.0938 99.4922 77.2727 98.5263 77.2727ZM97.5717 76.9318H99.2422L99.1058 77.6136C99.549 77.6818 99.9553 77.8665 100.325 78.1676C100.694 78.4744 100.879 78.9602 100.879 79.625C100.879 80.358 100.575 80.9545 99.9666 81.4148C99.3643 81.8807 98.4751 82.1136 97.299 82.1136L97.2308 80.7841C97.7592 80.7841 98.1967 80.6989 98.5433 80.5284C98.8956 80.3636 99.0717 80.0852 99.0717 79.6932C99.0717 79.3011 98.9268 79.0341 98.6371 78.892C98.3473 78.75 97.8786 78.6534 97.2308 78.6023L97.5717 76.9318ZM111.933 77.2727C110.751 77.2727 109.714 76.9915 108.822 76.429C107.935 75.8665 107.242 75.0795 106.742 74.0682C106.248 73.0568 106.001 71.875 106.001 70.5227C106.001 69.1591 106.248 67.9687 106.742 66.9517C107.242 65.9347 107.935 65.1449 108.822 64.5824C109.714 64.0199 110.751 63.7386 111.933 63.7386C113.114 63.7386 114.148 64.0199 115.035 64.5824C115.927 65.1449 116.62 65.9347 117.114 66.9517C117.614 67.9687 117.864 69.1591 117.864 70.5227C117.864 71.875 117.614 73.0568 117.114 74.0682C116.62 75.0795 115.927 75.8665 115.035 76.429C114.148 76.9915 113.114 77.2727 111.933 77.2727ZM111.933 75.4659C112.83 75.4659 113.569 75.2358 114.148 74.7756C114.728 74.3153 115.157 73.7102 115.435 72.9602C115.714 72.2102 115.853 71.3977 115.853 70.5227C115.853 69.6477 115.714 68.8324 115.435 68.0767C115.157 67.321 114.728 66.7102 114.148 66.2443C113.569 65.7784 112.83 65.5455 111.933 65.5455C111.035 65.5455 110.296 65.7784 109.717 66.2443C109.137 66.7102 108.708 67.321 108.43 68.0767C108.151 68.8324 108.012 69.6477 108.012 70.5227C108.012 71.3977 108.151 72.2102 108.43 72.9602C108.708 73.7102 109.137 74.3153 109.717 74.7756C110.296 75.2358 111.035 75.4659 111.933 75.4659ZM122.946 69.125V77H120.935V63.9091H122.878V65.9545H123.048C123.355 65.2898 123.821 64.7557 124.446 64.3523C125.071 63.9432 125.878 63.7386 126.866 63.7386C127.753 63.7386 128.528 63.9205 129.193 64.2841C129.858 64.642 130.375 65.1875 130.744 65.9205C131.114 66.6477 131.298 67.5682 131.298 68.6818V77H129.287V68.8182C129.287 67.7898 129.02 66.9886 128.486 66.4148C127.952 65.8352 127.219 65.5455 126.287 65.5455C125.645 65.5455 125.071 65.6847 124.565 65.9631C124.065 66.2415 123.67 66.6477 123.381 67.1818C123.091 67.7159 122.946 68.3636 122.946 69.125ZM144.246 66.8409L142.44 67.3523C142.326 67.0511 142.158 66.7585 141.937 66.4744C141.721 66.1847 141.425 65.946 141.05 65.7585C140.675 65.571 140.195 65.4773 139.61 65.4773C138.809 65.4773 138.141 65.6619 137.607 66.0312C137.079 66.3949 136.815 66.858 136.815 67.4205C136.815 67.9205 136.996 68.3153 137.36 68.6051C137.724 68.8949 138.292 69.1364 139.065 69.3295L141.008 69.8068C142.178 70.0909 143.05 70.5256 143.624 71.1108C144.198 71.6903 144.485 72.4375 144.485 73.3523C144.485 74.1023 144.269 74.7727 143.837 75.3636C143.411 75.9545 142.815 76.4205 142.048 76.7614C141.281 77.1023 140.388 77.2727 139.371 77.2727C138.036 77.2727 136.931 76.983 136.056 76.4034C135.181 75.8239 134.627 74.9773 134.394 73.8636L136.303 73.3864C136.485 74.0909 136.829 74.6193 137.335 74.9716C137.846 75.3239 138.513 75.5 139.337 75.5C140.275 75.5 141.019 75.3011 141.57 74.9034C142.127 74.5 142.406 74.017 142.406 73.4545C142.406 73 142.246 72.6193 141.928 72.3125C141.61 72 141.121 71.767 140.462 71.6136L138.281 71.1023C137.082 70.8182 136.201 70.3778 135.638 69.7812C135.082 69.179 134.803 68.4261 134.803 67.5227C134.803 66.7841 135.011 66.1307 135.425 65.5625C135.846 64.9943 136.417 64.5483 137.138 64.2244C137.866 63.9006 138.69 63.7386 139.61 63.7386C140.906 63.7386 141.923 64.0227 142.661 64.5909C143.406 65.1591 143.934 65.9091 144.246 66.8409Z" fill="#FF6B2C"/>
<path d="M34 92H131V95H34V92Z" fill="#EC6666"/>
<path d="M34 92H131V95H34V92Z" fill="#EC6666"/>
<path d="M34 92H131V95H34V92Z" fill="#EC6666"/>
<path d="M34 92H131V95H34V92Z" fill="#EC6666"/>
<path d="M34 92H131V95H34V92Z" fill="#EC6666"/>
<path d="M34 92H131V95H34V92Z" fill="#EC6666"/>
<path d="M34 92H131V95H34V92Z" fill="#FF6B2C"/>
</svg>
