<svg width="226" height="49" viewBox="0 0 226 49" fill="none" xmlns="http://www.w3.org/2000/svg">
<path d="M1.51705 19V1.54545H5.20739V15.9574H12.6903V19H1.51705ZM17.1477 1.54545V3.38636C17.1477 3.90909 17.0455 4.44318 16.8409 4.98864C16.642 5.52841 16.375 6.03977 16.0398 6.52273C15.7045 7 15.3381 7.40625 14.9403 7.74148L13.3381 6.79545C13.6222 6.34659 13.8722 5.84943 14.0881 5.30398C14.3097 4.75852 14.4205 4.125 14.4205 3.40341V1.54545H17.1477ZM28.1974 19H24.2429L30.2685 1.54545H35.0241L41.0412 19H37.0866L32.7145 5.53409H32.5781L28.1974 19ZM27.9503 12.1392H37.2912V15.0199H27.9503V12.1392ZM53.6378 5.90909L49.0611 19H44.9702L40.3935 5.90909H44.2287L46.9474 15.2756H47.0838L49.794 5.90909H53.6378ZM61.0398 19.2557C59.6932 19.2557 58.5341 18.983 57.5625 18.4375C56.5966 17.8864 55.8523 17.108 55.3295 16.1023C54.8068 15.0909 54.5455 13.8949 54.5455 12.5142C54.5455 11.1676 54.8068 9.9858 55.3295 8.96875C55.8523 7.9517 56.5881 7.15909 57.5369 6.59091C58.4915 6.02273 59.6108 5.73864 60.8949 5.73864C61.7585 5.73864 62.5625 5.87784 63.3068 6.15625C64.0568 6.42898 64.7102 6.84091 65.267 7.39205C65.8295 7.94318 66.267 8.63636 66.5795 9.47159C66.892 10.3011 67.0483 11.2727 67.0483 12.3864V13.3835H55.9943V11.1335H63.6307C63.6307 10.6108 63.517 10.1477 63.2898 9.74432C63.0625 9.34091 62.7472 9.02557 62.3438 8.7983C61.946 8.56534 61.483 8.44886 60.9545 8.44886C60.4034 8.44886 59.9148 8.5767 59.4886 8.83239C59.0682 9.08239 58.7386 9.42045 58.5 9.84659C58.2614 10.267 58.1392 10.7358 58.1335 11.2528V13.392C58.1335 14.0398 58.2528 14.5994 58.4915 15.071C58.7358 15.5426 59.0795 15.9062 59.5227 16.1619C59.9659 16.4176 60.4915 16.5455 61.0994 16.5455C61.5028 16.5455 61.8722 16.4886 62.2074 16.375C62.5426 16.2614 62.8295 16.0909 63.0682 15.8636C63.3068 15.6364 63.4886 15.358 63.6136 15.0284L66.9716 15.25C66.8011 16.0568 66.4517 16.7614 65.9233 17.3636C65.4006 17.9602 64.7244 18.4261 63.8949 18.7614C63.071 19.0909 62.1193 19.2557 61.0398 19.2557ZM73.0483 11.4318V19H69.4176V5.90909H72.8778V8.21875H73.0312C73.321 7.45739 73.8068 6.85511 74.4886 6.41193C75.1705 5.96307 75.9972 5.73864 76.9688 5.73864C77.8778 5.73864 78.6705 5.9375 79.3466 6.33523C80.0227 6.73295 80.5483 7.30114 80.9233 8.03977C81.2983 8.77273 81.4858 9.64773 81.4858 10.6648V19H77.8551V11.3125C77.8608 10.5114 77.6563 9.88636 77.2415 9.4375C76.8267 8.98295 76.2557 8.75568 75.5284 8.75568C75.0398 8.75568 74.608 8.8608 74.233 9.07102C73.8636 9.28125 73.5739 9.58807 73.3636 9.99148C73.1591 10.3892 73.054 10.8693 73.0483 11.4318ZM84.3473 19V5.90909H87.978V19H84.3473ZM86.1712 4.22159C85.6314 4.22159 85.1683 4.04261 84.782 3.68466C84.4013 3.32102 84.2109 2.88636 84.2109 2.38068C84.2109 1.88068 84.4013 1.4517 84.782 1.09375C85.1683 0.730113 85.6314 0.548295 86.1712 0.548295C86.7109 0.548295 87.1712 0.730113 87.5518 1.09375C87.9382 1.4517 88.1314 1.88068 88.1314 2.38068C88.1314 2.88636 87.9382 3.32102 87.5518 3.68466C87.1712 4.04261 86.7109 4.22159 86.1712 4.22159ZM90.8864 19V5.90909H94.4062V8.19318H94.5426C94.7813 7.38068 95.1818 6.76705 95.7443 6.35227C96.3068 5.93182 96.9545 5.72159 97.6875 5.72159C97.8693 5.72159 98.0653 5.73295 98.2756 5.75568C98.4858 5.77841 98.6705 5.80966 98.8295 5.84943V9.07102C98.6591 9.01989 98.4233 8.97443 98.1222 8.93466C97.821 8.89489 97.5455 8.875 97.2955 8.875C96.7614 8.875 96.2841 8.99148 95.8636 9.22443C95.4489 9.4517 95.1193 9.76989 94.875 10.179C94.6364 10.5881 94.517 11.0597 94.517 11.5938V19H90.8864ZM111.085 19.2131C110.091 19.2131 109.19 18.9574 108.384 18.446C107.582 17.929 106.946 17.1705 106.474 16.1705C106.009 15.1648 105.776 13.9318 105.776 12.4716C105.776 10.9716 106.017 9.72443 106.5 8.73011C106.983 7.73011 107.625 6.98295 108.426 6.48864C109.233 5.98864 110.116 5.73864 111.077 5.73864C111.81 5.73864 112.42 5.86364 112.909 6.11364C113.403 6.35795 113.801 6.66477 114.102 7.03409C114.409 7.39773 114.642 7.75568 114.801 8.10795H114.912V1.54545H118.534V19H114.955V16.9034H114.801C114.631 17.267 114.389 17.6278 114.077 17.9858C113.77 18.3381 113.369 18.6307 112.875 18.8636C112.386 19.0966 111.79 19.2131 111.085 19.2131ZM112.236 16.3239C112.821 16.3239 113.315 16.1648 113.719 15.8466C114.128 15.5227 114.44 15.071 114.656 14.4915C114.878 13.9119 114.989 13.233 114.989 12.4545C114.989 11.6761 114.881 11 114.665 10.4261C114.449 9.85227 114.136 9.40909 113.727 9.09659C113.318 8.78409 112.821 8.62784 112.236 8.62784C111.639 8.62784 111.136 8.78977 110.727 9.11364C110.318 9.4375 110.009 9.88636 109.798 10.4602C109.588 11.0341 109.483 11.6989 109.483 12.4545C109.483 13.2159 109.588 13.8892 109.798 14.4744C110.014 15.054 110.324 15.5085 110.727 15.8381C111.136 16.1619 111.639 16.3239 112.236 16.3239ZM127.485 19.2557C126.138 19.2557 124.979 18.983 124.008 18.4375C123.042 17.8864 122.298 17.108 121.775 16.1023C121.252 15.0909 120.991 13.8949 120.991 12.5142C120.991 11.1676 121.252 9.9858 121.775 8.96875C122.298 7.9517 123.033 7.15909 123.982 6.59091C124.937 6.02273 126.056 5.73864 127.34 5.73864C128.204 5.73864 129.008 5.87784 129.752 6.15625C130.502 6.42898 131.156 6.84091 131.712 7.39205C132.275 7.94318 132.712 8.63636 133.025 9.47159C133.337 10.3011 133.494 11.2727 133.494 12.3864V13.3835H122.44V11.1335H130.076C130.076 10.6108 129.962 10.1477 129.735 9.74432C129.508 9.34091 129.192 9.02557 128.789 8.7983C128.391 8.56534 127.928 8.44886 127.4 8.44886C126.849 8.44886 126.36 8.5767 125.934 8.83239C125.513 9.08239 125.184 9.42045 124.945 9.84659C124.707 10.267 124.585 10.7358 124.579 11.2528V13.392C124.579 14.0398 124.698 14.5994 124.937 15.071C125.181 15.5426 125.525 15.9062 125.968 16.1619C126.411 16.4176 126.937 16.5455 127.545 16.5455C127.948 16.5455 128.317 16.4886 128.653 16.375C128.988 16.2614 129.275 16.0909 129.513 15.8636C129.752 15.6364 129.934 15.358 130.059 15.0284L133.417 15.25C133.246 16.0568 132.897 16.7614 132.369 17.3636C131.846 17.9602 131.17 18.4261 130.34 18.7614C129.516 19.0909 128.565 19.2557 127.485 19.2557ZM146.241 19.2131C145.247 19.2131 144.347 18.9574 143.54 18.446C142.739 17.929 142.102 17.1705 141.631 16.1705C141.165 15.1648 140.932 13.9318 140.932 12.4716C140.932 10.9716 141.173 9.72443 141.656 8.73011C142.139 7.73011 142.781 6.98295 143.582 6.48864C144.389 5.98864 145.273 5.73864 146.233 5.73864C146.966 5.73864 147.577 5.86364 148.065 6.11364C148.56 6.35795 148.957 6.66477 149.259 7.03409C149.565 7.39773 149.798 7.75568 149.957 8.10795H150.068V1.54545H153.69V19H150.111V16.9034H149.957C149.787 17.267 149.545 17.6278 149.233 17.9858C148.926 18.3381 148.526 18.6307 148.031 18.8636C147.543 19.0966 146.946 19.2131 146.241 19.2131ZM147.392 16.3239C147.977 16.3239 148.472 16.1648 148.875 15.8466C149.284 15.5227 149.597 15.071 149.812 14.4915C150.034 13.9119 150.145 13.233 150.145 12.4545C150.145 11.6761 150.037 11 149.821 10.4261C149.605 9.85227 149.293 9.40909 148.884 9.09659C148.474 8.78409 147.977 8.62784 147.392 8.62784C146.795 8.62784 146.293 8.78977 145.884 9.11364C145.474 9.4375 145.165 9.88636 144.955 10.4602C144.744 11.0341 144.639 11.6989 144.639 12.4545C144.639 13.2159 144.744 13.8892 144.955 14.4744C145.17 15.054 145.48 15.5085 145.884 15.8381C146.293 16.1619 146.795 16.3239 147.392 16.3239ZM162.641 19.2557C161.295 19.2557 160.136 18.983 159.164 18.4375C158.198 17.8864 157.454 17.108 156.931 16.1023C156.408 15.0909 156.147 13.8949 156.147 12.5142C156.147 11.1676 156.408 9.9858 156.931 8.96875C157.454 7.9517 158.19 7.15909 159.138 6.59091C160.093 6.02273 161.212 5.73864 162.496 5.73864C163.36 5.73864 164.164 5.87784 164.908 6.15625C165.658 6.42898 166.312 6.84091 166.869 7.39205C167.431 7.94318 167.869 8.63636 168.181 9.47159C168.494 10.3011 168.65 11.2727 168.65 12.3864V13.3835H157.596V11.1335H165.232C165.232 10.6108 165.119 10.1477 164.891 9.74432C164.664 9.34091 164.349 9.02557 163.945 8.7983C163.548 8.56534 163.085 8.44886 162.556 8.44886C162.005 8.44886 161.516 8.5767 161.09 8.83239C160.67 9.08239 160.34 9.42045 160.102 9.84659C159.863 10.267 159.741 10.7358 159.735 11.2528V13.392C159.735 14.0398 159.854 14.5994 160.093 15.071C160.337 15.5426 160.681 15.9062 161.124 16.1619C161.567 16.4176 162.093 16.5455 162.701 16.5455C163.104 16.5455 163.474 16.4886 163.809 16.375C164.144 16.2614 164.431 16.0909 164.67 15.8636C164.908 15.6364 165.09 15.358 165.215 15.0284L168.573 15.25C168.403 16.0568 168.053 16.7614 167.525 17.3636C167.002 17.9602 166.326 18.4261 165.496 18.7614C164.673 19.0909 163.721 19.2557 162.641 19.2557ZM171.019 19V5.90909H174.479V8.21875H174.633C174.906 7.4517 175.36 6.84659 175.996 6.40341C176.633 5.96023 177.394 5.73864 178.281 5.73864C179.178 5.73864 179.942 5.96307 180.573 6.41193C181.204 6.85511 181.624 7.45739 181.835 8.21875H181.971C182.238 7.46875 182.721 6.86932 183.42 6.42045C184.124 5.96591 184.957 5.73864 185.917 5.73864C187.138 5.73864 188.13 6.12784 188.891 6.90625C189.658 7.67898 190.042 8.77557 190.042 10.196V19H186.42V10.9119C186.42 10.1847 186.227 9.6392 185.84 9.27557C185.454 8.91193 184.971 8.73011 184.391 8.73011C183.732 8.73011 183.218 8.94034 182.849 9.3608C182.479 9.77557 182.295 10.3239 182.295 11.0057V19H178.775V10.8352C178.775 10.1932 178.59 9.68182 178.221 9.30114C177.857 8.92045 177.377 8.73011 176.781 8.73011C176.377 8.73011 176.013 8.83239 175.69 9.03693C175.371 9.2358 175.119 9.51705 174.931 9.88068C174.744 10.2386 174.65 10.6591 174.65 11.142V19H171.019ZM196.643 19.2472C195.808 19.2472 195.063 19.1023 194.41 18.8125C193.756 18.517 193.239 18.0824 192.859 17.5085C192.484 16.929 192.296 16.2074 192.296 15.3438C192.296 14.6165 192.43 14.0057 192.697 13.5114C192.964 13.017 193.327 12.6193 193.788 12.3182C194.248 12.017 194.771 11.7898 195.356 11.6364C195.947 11.483 196.566 11.375 197.214 11.3125C197.975 11.233 198.589 11.1591 199.055 11.0909C199.521 11.017 199.859 10.9091 200.069 10.767C200.279 10.625 200.384 10.4148 200.384 10.1364V10.0852C200.384 9.54545 200.214 9.12784 199.873 8.83239C199.538 8.53693 199.06 8.3892 198.441 8.3892C197.788 8.3892 197.268 8.53409 196.881 8.82386C196.495 9.10795 196.239 9.46591 196.114 9.89773L192.756 9.625C192.927 8.82955 193.262 8.14205 193.762 7.5625C194.262 6.97727 194.907 6.52841 195.697 6.21591C196.492 5.89773 197.413 5.73864 198.458 5.73864C199.185 5.73864 199.881 5.82386 200.546 5.99432C201.217 6.16477 201.81 6.42898 202.327 6.78693C202.85 7.14489 203.262 7.60511 203.563 8.16761C203.864 8.72443 204.015 9.39205 204.015 10.1705V19H200.572V17.1847H200.469C200.259 17.5938 199.978 17.9545 199.626 18.267C199.273 18.5739 198.85 18.8153 198.356 18.9915C197.862 19.1619 197.29 19.2472 196.643 19.2472ZM197.683 16.7415C198.217 16.7415 198.688 16.6364 199.097 16.4261C199.506 16.2102 199.827 15.9205 200.06 15.5568C200.293 15.1932 200.41 14.7812 200.41 14.321V12.9318C200.296 13.0057 200.14 13.0739 199.941 13.1364C199.748 13.1932 199.529 13.2472 199.285 13.2983C199.04 13.3437 198.796 13.3864 198.552 13.4261C198.308 13.4602 198.086 13.4915 197.887 13.5199C197.461 13.5824 197.089 13.6818 196.771 13.8182C196.452 13.9545 196.205 14.1392 196.029 14.3722C195.853 14.5994 195.765 14.8835 195.765 15.2244C195.765 15.7188 195.944 16.0966 196.302 16.358C196.665 16.6136 197.126 16.7415 197.683 16.7415ZM206.832 19V5.90909H210.462V19H206.832ZM208.656 4.22159C208.116 4.22159 207.653 4.04261 207.266 3.68466C206.886 3.32102 206.695 2.88636 206.695 2.38068C206.695 1.88068 206.886 1.4517 207.266 1.09375C207.653 0.730113 208.116 0.548295 208.656 0.548295C209.195 0.548295 209.656 0.730113 210.036 1.09375C210.423 1.4517 210.616 1.88068 210.616 2.38068C210.616 2.88636 210.423 3.32102 210.036 3.68466C209.656 4.04261 209.195 4.22159 208.656 4.22159ZM217.001 11.4318V19H213.371V5.90909H216.831V8.21875H216.984C217.274 7.45739 217.76 6.85511 218.442 6.41193C219.124 5.96307 219.95 5.73864 220.922 5.73864C221.831 5.73864 222.624 5.9375 223.3 6.33523C223.976 6.73295 224.501 7.30114 224.876 8.03977C225.251 8.77273 225.439 9.64773 225.439 10.6648V19H221.808V11.3125C221.814 10.5114 221.609 9.88636 221.195 9.4375C220.78 8.98295 220.209 8.75568 219.482 8.75568C218.993 8.75568 218.561 8.8608 218.186 9.07102C217.817 9.28125 217.527 9.58807 217.317 9.99148C217.112 10.3892 217.007 10.8693 217.001 11.4318ZM7.36364 48.2557C6.02273 48.2557 4.86932 47.9716 3.90341 47.4034C2.94318 46.8295 2.20455 46.0341 1.6875 45.017C1.17614 44 0.920455 42.8295 0.920455 41.5057C0.920455 40.1648 1.17898 38.9886 1.69602 37.9773C2.21875 36.9602 2.96023 36.1676 3.92045 35.5994C4.88068 35.0256 6.02273 34.7386 7.34659 34.7386C8.48864 34.7386 9.48864 34.946 10.3466 35.3608C11.2045 35.7756 11.8835 36.358 12.3835 37.108C12.8835 37.858 13.1591 38.7386 13.2102 39.75H9.78409C9.6875 39.0966 9.43182 38.571 9.01705 38.1733C8.60795 37.7699 8.07102 37.5682 7.40625 37.5682C6.84375 37.5682 6.35227 37.7216 5.93182 38.0284C5.51705 38.3295 5.19318 38.7699 4.96023 39.3494C4.72727 39.929 4.6108 40.6307 4.6108 41.4545C4.6108 42.2898 4.72443 43 4.9517 43.5852C5.18466 44.1705 5.51136 44.6165 5.93182 44.9233C6.35227 45.2301 6.84375 45.3835 7.40625 45.3835C7.82102 45.3835 8.19318 45.2983 8.52273 45.1278C8.85795 44.9574 9.13352 44.7102 9.34943 44.3864C9.57102 44.0568 9.71591 43.6619 9.78409 43.2017H13.2102C13.1534 44.2017 12.8807 45.0824 12.392 45.8438C11.9091 46.5994 11.2415 47.1903 10.3892 47.6165C9.53693 48.0426 8.52841 48.2557 7.36364 48.2557ZM18.5774 30.5455V32.3864C18.5774 32.9091 18.4751 33.4432 18.2706 33.9886C18.0717 34.5284 17.8047 35.0398 17.4695 35.5227C17.1342 36 16.7678 36.4062 16.37 36.7415L14.7678 35.7955C15.0518 35.3466 15.3018 34.8494 15.5178 34.304C15.7393 33.7585 15.8501 33.125 15.8501 32.4034V30.5455H18.5774ZM25.4616 48.2557C24.1151 48.2557 22.956 47.983 21.9844 47.4375C21.0185 46.8864 20.2741 46.108 19.7514 45.1023C19.2287 44.0909 18.9673 42.8949 18.9673 41.5142C18.9673 40.1676 19.2287 38.9858 19.7514 37.9688C20.2741 36.9517 21.0099 36.1591 21.9588 35.5909C22.9134 35.0227 24.0327 34.7386 25.3168 34.7386C26.1804 34.7386 26.9844 34.8778 27.7287 35.1562C28.4787 35.429 29.1321 35.8409 29.6889 36.392C30.2514 36.9432 30.6889 37.6364 31.0014 38.4716C31.3139 39.3011 31.4702 40.2727 31.4702 41.3864V42.3835H20.4162V40.1335H28.0526C28.0526 39.6108 27.9389 39.1477 27.7116 38.7443C27.4844 38.3409 27.169 38.0256 26.7656 37.7983C26.3679 37.5653 25.9048 37.4489 25.3764 37.4489C24.8253 37.4489 24.3366 37.5767 23.9105 37.8324C23.4901 38.0824 23.1605 38.4205 22.9219 38.8466C22.6832 39.267 22.5611 39.7358 22.5554 40.2528V42.392C22.5554 43.0398 22.6747 43.5994 22.9134 44.071C23.1577 44.5426 23.5014 44.9062 23.9446 45.1619C24.3878 45.4176 24.9134 45.5455 25.5213 45.5455C25.9247 45.5455 26.294 45.4886 26.6293 45.375C26.9645 45.2614 27.2514 45.0909 27.4901 44.8636C27.7287 44.6364 27.9105 44.358 28.0355 44.0284L31.3935 44.25C31.223 45.0568 30.8736 45.7614 30.3452 46.3636C29.8224 46.9602 29.1463 47.4261 28.3168 47.7614C27.4929 48.0909 26.5412 48.2557 25.4616 48.2557ZM44.7315 38.642L41.4077 38.8466C41.3509 38.5625 41.2287 38.3068 41.0412 38.0795C40.8537 37.8466 40.6065 37.6619 40.2997 37.5256C39.9986 37.3835 39.6378 37.3125 39.2173 37.3125C38.6548 37.3125 38.1804 37.4318 37.794 37.6705C37.4077 37.9034 37.2145 38.2159 37.2145 38.608C37.2145 38.9205 37.3395 39.1847 37.5895 39.4006C37.8395 39.6165 38.2685 39.7898 38.8764 39.9205L41.2457 40.3977C42.5185 40.6591 43.4673 41.0795 44.0923 41.6591C44.7173 42.2386 45.0298 43 45.0298 43.9432C45.0298 44.8011 44.777 45.554 44.2713 46.2017C43.7713 46.8494 43.0838 47.3551 42.2088 47.7188C41.3395 48.0767 40.3366 48.2557 39.2003 48.2557C37.4673 48.2557 36.0866 47.8949 35.0582 47.1733C34.0355 46.446 33.4361 45.4574 33.2599 44.2074L36.831 44.0199C36.9389 44.5483 37.2003 44.9517 37.6151 45.2301C38.0298 45.5028 38.5611 45.6392 39.2088 45.6392C39.8452 45.6392 40.3565 45.517 40.7429 45.2727C41.1349 45.0227 41.3338 44.7017 41.3395 44.3097C41.3338 43.9801 41.1946 43.7102 40.9219 43.5C40.6491 43.2841 40.2287 43.1193 39.6605 43.0057L37.3935 42.554C36.1151 42.2983 35.1634 41.8551 34.5384 41.2244C33.919 40.5937 33.6094 39.7898 33.6094 38.8125C33.6094 37.9716 33.8366 37.2472 34.2912 36.6392C34.7514 36.0312 35.3963 35.5625 36.2259 35.233C37.0611 34.9034 38.0384 34.7386 39.1577 34.7386C40.8111 34.7386 42.1122 35.0881 43.0611 35.7869C44.0156 36.4858 44.5724 37.4375 44.7315 38.642ZM54.2791 34.9091V37.6364H46.3956V34.9091H54.2791ZM48.1854 31.7727H51.8161V43.9773C51.8161 44.3125 51.8672 44.5739 51.9695 44.7614C52.0717 44.9432 52.2138 45.071 52.3956 45.1449C52.5831 45.2187 52.799 45.2557 53.0433 45.2557C53.2138 45.2557 53.3842 45.2415 53.5547 45.2131C53.7251 45.179 53.8558 45.1534 53.9467 45.1364L54.5178 47.8381C54.3359 47.8949 54.0803 47.9602 53.7507 48.0341C53.4212 48.1136 53.0206 48.1619 52.549 48.179C51.674 48.2131 50.907 48.0966 50.2479 47.8295C49.5945 47.5625 49.0859 47.1477 48.7223 46.5852C48.3587 46.0227 48.1797 45.3125 48.1854 44.4545V31.7727Z" fill="black"/>
<path d="M65.8295 40.4318V48H62.1989V34.9091H65.6591V37.2188H65.8125C66.1023 36.4574 66.5881 35.8551 67.2699 35.4119C67.9517 34.9631 68.7784 34.7386 69.75 34.7386C70.6591 34.7386 71.4517 34.9375 72.1278 35.3352C72.804 35.733 73.3295 36.3011 73.7045 37.0398C74.0795 37.7727 74.267 38.6477 74.267 39.6648V48H70.6364V40.3125C70.642 39.5114 70.4375 38.8864 70.0227 38.4375C69.608 37.983 69.0369 37.7557 68.3097 37.7557C67.821 37.7557 67.3892 37.8608 67.0142 38.071C66.6449 38.2812 66.3551 38.5881 66.1449 38.9915C65.9403 39.3892 65.8352 39.8693 65.8295 40.4318ZM83.0433 48.2557C81.7195 48.2557 80.5746 47.9744 79.6087 47.4119C78.6484 46.8437 77.907 46.054 77.3842 45.0426C76.8615 44.0256 76.6001 42.8466 76.6001 41.5057C76.6001 40.1534 76.8615 38.9716 77.3842 37.9602C77.907 36.9432 78.6484 36.1534 79.6087 35.5909C80.5746 35.0227 81.7195 34.7386 83.0433 34.7386C84.3672 34.7386 85.5092 35.0227 86.4695 35.5909C87.4354 36.1534 88.1797 36.9432 88.7024 37.9602C89.2251 38.9716 89.4865 40.1534 89.4865 41.5057C89.4865 42.8466 89.2251 44.0256 88.7024 45.0426C88.1797 46.054 87.4354 46.8437 86.4695 47.4119C85.5092 47.9744 84.3672 48.2557 83.0433 48.2557ZM83.0604 45.4432C83.6626 45.4432 84.1655 45.2727 84.5689 44.9318C84.9723 44.5852 85.2763 44.1136 85.4808 43.517C85.6911 42.9205 85.7962 42.2415 85.7962 41.4801C85.7962 40.7188 85.6911 40.0398 85.4808 39.4432C85.2763 38.8466 84.9723 38.375 84.5689 38.0284C84.1655 37.6818 83.6626 37.5085 83.0604 37.5085C82.4524 37.5085 81.9411 37.6818 81.5263 38.0284C81.1172 38.375 80.8075 38.8466 80.5973 39.4432C80.3928 40.0398 80.2905 40.7188 80.2905 41.4801C80.2905 42.2415 80.3928 42.9205 80.5973 43.517C80.8075 44.1136 81.1172 44.5852 81.5263 44.9318C81.9411 45.2727 82.4524 45.4432 83.0604 45.4432ZM100.242 42.4261V34.9091H103.873V48H100.387V45.6222H100.251C99.9553 46.3892 99.4638 47.0057 98.7763 47.4716C98.0945 47.9375 97.2621 48.1705 96.2791 48.1705C95.4041 48.1705 94.6342 47.9716 93.9695 47.5739C93.3047 47.1761 92.7848 46.6108 92.4098 45.8778C92.0405 45.1449 91.853 44.267 91.8473 43.2443V34.9091H95.478V42.5966C95.4837 43.3693 95.6911 43.9801 96.1001 44.429C96.5092 44.8778 97.0575 45.1023 97.745 45.1023C98.1825 45.1023 98.5916 45.0028 98.9723 44.804C99.353 44.5994 99.6598 44.2983 99.8928 43.9006C100.131 43.5028 100.248 43.0114 100.242 42.4261ZM117.669 38.642L114.345 38.8466C114.288 38.5625 114.166 38.3068 113.979 38.0795C113.791 37.8466 113.544 37.6619 113.237 37.5256C112.936 37.3835 112.575 37.3125 112.155 37.3125C111.592 37.3125 111.118 37.4318 110.732 37.6705C110.345 37.9034 110.152 38.2159 110.152 38.608C110.152 38.9205 110.277 39.1847 110.527 39.4006C110.777 39.6165 111.206 39.7898 111.814 39.9205L114.183 40.3977C115.456 40.6591 116.405 41.0795 117.03 41.6591C117.655 42.2386 117.967 43 117.967 43.9432C117.967 44.8011 117.714 45.554 117.209 46.2017C116.709 46.8494 116.021 47.3551 115.146 47.7188C114.277 48.0767 113.274 48.2557 112.138 48.2557C110.405 48.2557 109.024 47.8949 107.996 47.1733C106.973 46.446 106.374 45.4574 106.197 44.2074L109.768 44.0199C109.876 44.5483 110.138 44.9517 110.553 45.2301C110.967 45.5028 111.499 45.6392 112.146 45.6392C112.783 45.6392 113.294 45.517 113.68 45.2727C114.072 45.0227 114.271 44.7017 114.277 44.3097C114.271 43.9801 114.132 43.7102 113.859 43.5C113.587 43.2841 113.166 43.1193 112.598 43.0057L110.331 42.554C109.053 42.2983 108.101 41.8551 107.476 41.2244C106.857 40.5937 106.547 39.7898 106.547 38.8125C106.547 37.9716 106.774 37.2472 107.229 36.6392C107.689 36.0312 108.334 35.5625 109.163 35.233C109.999 34.9034 110.976 34.7386 112.095 34.7386C113.749 34.7386 115.05 35.0881 115.999 35.7869C116.953 36.4858 117.51 37.4375 117.669 38.642Z" fill="#FF6B2C"/>
</svg>
